<?xml version="1.0" standalone="no"?>
<!DOCTYPE svg PUBLIC "-//W3C//DTD SVG 1.1//EN" "http://www.w3.org/Graphics/SVG/1.1/DTD/svg11.dtd" >
<svg xmlns="http://www.w3.org/2000/svg">
<metadata>Generated by IcoMoon</metadata>
<defs>
<font id="icons" horiz-adv-x="1024">
<font-face units-per-em="1024" ascent="960" descent="-64" />
<missing-glyph horiz-adv-x="1024" />
<glyph unicode="&#x20;" horiz-adv-x="512" d="" />
<glyph unicode="&#xe900;" glyph-name="activity" d="M938.667 492.804h-170.667c-17.067 0-34.133-12.8-38.4-29.867l-89.6-260.267-217.6 644.267c-4.267 17.067-21.333 29.867-38.4 29.867s-34.133-12.8-38.4-29.867l-119.467-354.133h-140.8c-25.6 0-42.667-17.067-42.667-42.667s17.067-42.667 42.667-42.667h170.667c17.067 0 34.133 12.8 38.4 29.867l89.6 260.267 217.6-648.533c4.267-17.067 21.333-29.867 38.4-29.867s34.133 12.8 38.4 29.867l119.467 354.133h140.8c25.6 0 42.667 17.067 42.667 42.667s-17.067 46.933-42.667 46.933z" />
<glyph unicode="&#xe901;" glyph-name="arrow-left" d="M810.13 490.664h-494.933l226.133 226.133c17.067 17.067 17.067 42.667 0 59.733s-42.667 17.067-59.733 0l-298.667-298.667c-4.267-4.267-8.533-8.533-8.533-12.8-4.267-8.533-4.267-21.333 0-34.133 4.267-4.267 4.267-8.533 8.533-12.8l298.667-298.667c8.533-8.533 21.333-12.8 29.867-12.8s21.333 4.267 29.867 12.8c17.067 17.067 17.067 42.667 0 59.733l-226.133 226.133h494.933c25.6 0 42.667 17.067 42.667 42.667s-17.067 42.667-42.667 42.667z" />
<glyph unicode="&#xe902;" glyph-name="arrow-right" d="M849.603 430.937c4.267 8.533 4.267 21.333 0 34.133-4.267 4.267-4.267 8.533-8.533 12.8l-298.667 298.667c-17.067 17.067-42.667 17.067-59.733 0s-17.067-42.667 0-59.733l226.133-226.133h-494.933c-25.6 0-42.667-17.067-42.667-42.667s17.067-42.667 42.667-42.667h494.933l-226.133-226.133c-17.067-17.067-17.067-42.667 0-59.733 8.533-8.533 21.333-12.8 29.867-12.8s21.333 4.267 29.867 12.8l298.667 298.667c4.267 4.267 8.533 8.533 8.533 12.8z" />
<glyph unicode="&#xe903;" glyph-name="at-sign" d="M512 917.337c-123.733 0-243.2-46.933-332.8-136.533s-136.533-209.067-136.533-332.8c0-260.267 209.067-469.333 469.333-469.333 102.4 0 204.8 34.133 285.867 98.133 17.067 12.8 21.333 42.667 8.533 59.733s-42.667 21.333-59.733 8.533c-68.267-51.2-149.333-81.067-234.667-81.067-213.333 0-384 170.667-384 384 0 102.4 38.4 200.533 110.933 273.067s170.667 110.933 273.067 110.933c213.333 0 384-170.667 384-384v-42.667c0-46.933-38.4-85.333-85.333-85.333s-85.333 38.4-85.333 85.333v213.333c0 25.6-17.067 42.667-42.667 42.667s-42.667-17.067-42.667-42.667v0c-34.133 25.6-81.067 42.667-128 42.667-119.467 0-213.333-93.867-213.333-213.333s93.867-213.333 213.333-213.333c64 0 119.467 29.867 157.867 72.533 29.867-42.667 81.067-72.533 140.8-72.533 93.867 0 170.667 76.8 170.667 170.667v42.667c0 260.267-209.067 469.333-469.333 469.333zM512 320.004c-72.533 0-128 55.467-128 128s55.467 128 128 128 128-55.467 128-128-55.467-128-128-128z" />
<glyph unicode="&#xe904;" glyph-name="menu-simple" d="M128 556.113h768c25.6 0 42.667 17.067 42.667 42.667s-17.067 42.667-42.667 42.667h-768c-25.6 0-42.667-17.067-42.667-42.667s17.067-42.667 42.667-42.667zM698.106 339.887h-570.106c-25.6 0-42.667-17.067-42.667-42.667s17.067-42.667 42.667-42.667h570.106c25.6 0 42.667 17.067 42.667 42.667s-17.067 42.667-42.667 42.667z" />
<glyph unicode="&#xe905;" glyph-name="menu" d="M896 490.67h-768c-25.6 0-42.667-17.067-42.667-42.667s17.067-42.667 42.667-42.667h768c25.6 0 42.667 17.067 42.667 42.667s-17.067 42.667-42.667 42.667zM128 661.336h768c25.6 0 42.667 17.067 42.667 42.667s-17.067 42.667-42.667 42.667h-768c-25.6 0-42.667-17.067-42.667-42.667s17.067-42.667 42.667-42.667zM896 234.67h-768c-25.6 0-42.667-17.067-42.667-42.667s17.067-42.667 42.667-42.667h768c25.6 0 42.667 17.067 42.667 42.667s-17.067 42.667-42.667 42.667z" />
<glyph unicode="&#xe906;" glyph-name="close" d="M571.725 447.997l226.132 226.132c17.066 17.066 17.066 42.667 0 59.732s-42.667 17.066-59.732 0l-226.132-226.132-226.132 226.132c-17.066 17.066-42.667 17.066-59.732 0s-17.066-42.667 0-59.732l226.132-226.132-226.132-226.132c-17.066-17.066-17.066-42.667 0-59.732 8.533-8.533 17.066-12.8 29.867-12.8s21.332 4.267 29.867 12.8l226.132 226.132 226.132-226.132c8.533-8.533 21.332-12.8 29.867-12.8s21.332 4.267 29.867 12.8c17.066 17.066 17.066 42.667 0 59.732l-226.132 226.132z" />
<glyph unicode="&#xe907;" glyph-name="check" d="M883.2 712.534c-17.067 17.067-42.667 17.067-59.733 0l-439.467-439.467-183.467 183.467c-17.067 17.067-42.667 17.067-59.733 0s-17.067-42.667 0-59.733l213.333-213.333c8.533-8.533 17.067-12.8 29.867-12.8s21.333 4.267 29.867 12.8l469.333 469.333c17.067 17.067 17.067 42.667 0 59.733z" />
<glyph unicode="&#xe908;" glyph-name="chevron-down" d="M797.867 605.871c-17.067 17.067-42.667 17.067-59.733 0l-226.133-226.133-226.133 226.133c-17.067 17.067-42.667 17.067-59.733 0s-17.067-42.667 0-59.733l256-256c8.533-8.533 21.333-12.8 29.867-12.8s21.333 4.267 29.867 12.8l256 256c17.067 17.067 17.067 42.667 0 59.733z" />
<glyph unicode="&#xe909;" glyph-name="chevron-left" d="M443.733 448.004l226.133 226.133c17.067 17.067 17.067 42.667 0 59.733s-42.667 17.067-59.733 0l-256-256c-17.067-17.067-17.067-42.667 0-59.733l256-256c8.533-8.533 21.333-12.8 29.867-12.8s21.333 4.267 29.867 12.8c17.067 17.067 17.067 42.667 0 59.733l-226.133 226.133z" />
<glyph unicode="&#xe90a;" glyph-name="chevron-right" d="M669.875 477.863l-256 256c-17.067 17.067-42.667 17.067-59.733 0s-17.067-42.667 0-59.733l226.133-226.133-226.133-226.133c-17.067-17.067-17.067-42.667 0-59.733 8.533-8.533 17.067-12.8 29.867-12.8s21.333 4.267 29.867 12.8l256 256c17.067 17.067 17.067 42.667 0 59.733z" />
<glyph unicode="&#xe90b;" glyph-name="chevron-up" d="M797.86 349.856l-256 256c-17.067 17.067-42.667 17.067-59.733 0l-256-256c-17.067-17.067-17.067-42.667 0-59.733s42.667-17.067 59.733 0l226.133 226.133 226.133-226.133c8.533-8.533 21.333-12.8 29.867-12.8s21.333 4.267 29.867 12.8c17.067 17.067 17.067 42.667 0 59.733z" />
<glyph unicode="&#xe90c;" glyph-name="clock" d="M512 917.33c-260.267 0-469.333-209.067-469.333-469.333s209.067-469.333 469.333-469.333 469.333 209.067 469.333 469.333-209.067 469.333-469.333 469.333zM512 63.997c-213.333 0-384 170.667-384 384s170.667 384 384 384c213.333 0 384-170.667 384-384s-170.667-384-384-384zM699.733 401.064l-145.067 72.533v230.4c0 25.6-17.067 42.667-42.667 42.667s-42.667-17.067-42.667-42.667v-256c0-17.067 8.533-29.867 25.6-38.4l170.667-85.333c4.267-4.267 8.533-4.267 17.067-4.267 17.067 0 29.867 8.533 38.4 25.6s0 42.667-21.333 55.467z" />
<glyph unicode="&#xe90d;" glyph-name="code" d="M968.533 477.863l-256 256c-17.067 17.067-42.667 17.067-59.733 0s-17.067-42.667 0-59.733l226.133-226.133-226.133-226.133c-17.067-17.067-17.067-42.667 0-59.733 8.533-8.533 21.333-12.8 29.867-12.8s21.333 4.267 29.867 12.8l256 256c17.067 17.067 17.067 42.667 0 59.733zM371.2 733.863c-17.067 17.067-42.667 17.067-59.733 0l-256-256c-17.067-17.067-17.067-42.667 0-59.733l256-256c8.533-8.533 17.067-12.8 29.867-12.8s21.333 4.267 29.867 12.8c17.067 17.067 17.067 42.667 0 59.733l-226.133 226.133 226.133 226.133c17.067 17.067 17.067 42.667 0 59.733z" />
<glyph unicode="&#xe90e;" glyph-name="compass" d="M512 917.337c-260.267 0-469.333-209.067-469.333-469.333s209.067-469.333 469.333-469.333 469.333 209.067 469.333 469.333-209.067 469.333-469.333 469.333zM512 64.004c-213.333 0-384 170.667-384 384s170.667 384 384 384c213.333 0 384-170.667 384-384s-170.667-384-384-384zM678.4 669.871l-268.8-89.6c-12.8-4.267-25.6-17.067-29.867-29.867l-89.6-273.067c-4.267-17.067 0-34.133 8.533-42.667s17.067-12.8 29.867-12.8c4.267 0 8.533 0 12.8 4.267l273.067 89.6c12.8 4.267 21.333 12.8 25.6 25.6l89.6 273.067c4.267 17.067 0 34.133-8.533 42.667-8.533 12.8-25.6 17.067-42.667 12.8zM567.467 392.537l-170.667-55.467 55.467 170.667 170.667 55.467-55.467-170.667z" />
<glyph unicode="&#xe90f;" glyph-name="copy" d="M853.333 618.663h-384c-72.533 0-128-55.467-128-128v-384c0-72.533 55.467-128 128-128h384c72.533 0 128 55.467 128 128v384c0 72.533-55.467 128-128 128zM896 106.663c0-25.6-17.067-42.667-42.667-42.667h-384c-25.6 0-42.667 17.067-42.667 42.667v384c0 25.6 17.067 42.667 42.667 42.667h384c25.6 0 42.667-17.067 42.667-42.667v-384zM213.333 362.663h-42.667c-25.6 0-42.667 17.067-42.667 42.667v384c0 25.6 17.067 42.667 42.667 42.667h384c25.6 0 42.667-17.067 42.667-42.667v-42.667c0-25.6 17.067-42.667 42.667-42.667s42.667 17.067 42.667 42.667v42.667c0 72.533-55.467 128-128 128h-384c-72.533 0-128-55.467-128-128v-384c0-72.533 55.467-128 128-128h42.667c25.6 0 42.667 17.067 42.667 42.667s-17.067 42.667-42.667 42.667z" />
<glyph unicode="&#xe910;" glyph-name="credit-card" d="M896 831.996h-768c-72.533 0-128-55.467-128-128v-512c0-72.533 55.467-128 128-128h768c72.533 0 128 55.467 128 128v512c0 72.533-55.467 128-128 128zM128 746.663h768c25.6 0 42.667-17.067 42.667-42.667v-128h-853.333v128c0 25.6 17.067 42.667 42.667 42.667zM896 149.329h-768c-25.6 0-42.667 17.067-42.667 42.667v298.667h853.333v-298.667c0-25.6-17.067-42.667-42.667-42.667z" />
<glyph unicode="&#xe911;" glyph-name="external-link" d="M768 448.004c-25.6 0-42.667-17.067-42.667-42.667v-256c0-25.6-17.067-42.667-42.667-42.667h-469.333c-25.6 0-42.667 17.067-42.667 42.667v469.333c0 25.6 17.067 42.667 42.667 42.667h256c25.6 0 42.667 17.067 42.667 42.667s-17.067 42.667-42.667 42.667h-256c-72.533 0-128-55.467-128-128v-469.333c0-72.533 55.467-128 128-128h469.333c72.533 0 128 55.467 128 128v256c0 25.6-17.067 42.667-42.667 42.667zM934.4 849.071c-4.267 8.533-12.8 17.067-21.333 21.333-4.267 4.267-12.8 4.267-17.067 4.267h-256c-25.6 0-42.667-17.067-42.667-42.667s17.067-42.667 42.667-42.667h153.6l-396.8-396.8c-17.067-17.067-17.067-42.667 0-59.733 8.533-8.533 17.067-12.8 29.867-12.8s21.333 4.267 29.867 12.8l396.8 396.8v-153.6c0-25.6 17.067-42.667 42.667-42.667s42.667 17.067 42.667 42.667v256c0 4.267 0 12.8-4.267 17.067z" />
<glyph unicode="&#xe912;" glyph-name="filter" d="M977.067 849.071c-8.533 17.067-21.333 25.6-38.4 25.6h-853.333c-17.067 0-29.867-8.533-38.4-25.6-8.533-12.8-4.267-29.867 4.267-42.667l332.8-392.533v-264.533c0-17.067 8.533-29.867 25.6-38.4l170.667-85.333c4.267-4.267 8.533-4.267 17.067-4.267s17.067 0 21.333 4.267c12.8 8.533 21.333 21.333 21.333 38.4v349.867l332.8 392.533c8.533 12.8 12.8 29.867 4.267 42.667zM563.2 456.537c-4.267-8.533-8.533-17.067-8.533-29.867v-294.4l-85.333 42.667v251.733c0 8.533-4.267 21.333-8.533 25.6l-281.6 337.067h669.867l-285.867-332.8z" />
<glyph unicode="&#xe913;" glyph-name="gift" d="M938.667 703.997h-102.4c12.8 21.333 17.067 42.667 17.067 64 0 81.067-68.267 149.333-149.333 149.333-98.133 0-157.867-68.267-192-132.267-34.133 64-93.867 132.267-192 132.267-81.067 0-149.333-68.267-149.333-149.333 0-21.333 4.267-42.667 17.067-64h-102.4c-25.6 0-42.667-17.067-42.667-42.667v-213.333c0-25.6 17.067-42.667 42.667-42.667h42.667v-384c0-25.6 17.067-42.667 42.667-42.667h682.667c25.6 0 42.667 17.067 42.667 42.667v384h42.667c25.6 0 42.667 17.067 42.667 42.667v213.333c0 25.6-17.067 42.667-42.667 42.667zM704 831.997c34.133 0 64-29.867 64-64s-29.867-64-64-64h-136.533c21.333 51.2 64 128 136.533 128zM256 767.997c0 34.133 29.867 64 64 64 72.533 0 115.2-76.8 136.533-128h-136.533c-34.133 0-64 29.867-64 64zM128 618.664h341.333v-128h-341.333v128zM213.333 405.33h256v-341.333h-256v341.333zM810.667 63.997h-256v341.333h256v-341.333zM896 490.664h-341.333v128h341.333v-128z" />
<glyph unicode="&#xe914;" glyph-name="globe" d="M512 917.337c-260.267 0-469.333-209.067-469.333-469.333s209.067-469.333 469.333-469.333 469.333 209.067 469.333 469.333-209.067 469.333-469.333 469.333zM891.733 490.671h-170.667c-8.533 119.467-46.933 230.4-115.2 328.533 153.6-38.4 268.8-170.667 285.867-328.533zM388.267 405.337h251.733c-12.8-115.2-55.467-226.133-123.733-315.733-76.8 89.6-119.467 200.533-128 315.733zM388.267 490.671c12.8 115.2 55.467 226.133 123.733 315.733 72.533-93.867 115.2-204.8 123.733-315.733h-247.467zM413.867 819.204c-64-98.133-102.4-209.067-110.933-328.533h-170.667c17.067 157.867 132.267 290.133 281.6 328.533zM132.267 405.337h170.667c8.533-119.467 46.933-230.4 115.2-328.533-153.6 38.4-268.8 170.667-285.867 328.533zM610.133 76.804c64 98.133 102.4 209.067 115.2 328.533h170.667c-21.333-157.867-136.533-290.133-285.867-328.533z" />
<glyph unicode="&#xe915;" glyph-name="grid" d="M426.667 874.656h-298.667c-25.6 0-42.667-17.067-42.667-42.667v-298.667c0-25.6 17.067-42.667 42.667-42.667h298.667c25.6 0 42.667 17.067 42.667 42.667v298.667c0 25.6-17.067 42.667-42.667 42.667zM384 575.989h-213.333v213.333h213.333v-213.333zM896 874.656h-298.667c-25.6 0-42.667-17.067-42.667-42.667v-298.667c0-25.6 17.067-42.667 42.667-42.667h298.667c25.6 0 42.667 17.067 42.667 42.667v298.667c0 25.6-17.067 42.667-42.667 42.667zM853.333 575.989h-213.333v213.333h213.333v-213.333zM896 405.322h-298.667c-25.6 0-42.667-17.067-42.667-42.667v-298.667c0-25.6 17.067-42.667 42.667-42.667h298.667c25.6 0 42.667 17.067 42.667 42.667v298.667c0 25.6-17.067 42.667-42.667 42.667zM853.333 106.656h-213.333v213.333h213.333v-213.333zM426.667 405.322h-298.667c-25.6 0-42.667-17.067-42.667-42.667v-298.667c0-25.6 17.067-42.667 42.667-42.667h298.667c25.6 0 42.667 17.067 42.667 42.667v298.667c0 25.6-17.067 42.667-42.667 42.667zM384 106.656h-213.333v213.333h213.333v-213.333z" />
<glyph unicode="&#xe916;" glyph-name="help-circle" d="M512 917.33c-260.267 0-469.333-209.067-469.333-469.333s209.067-469.333 469.333-469.333 469.333 209.067 469.333 469.333-209.067 469.333-469.333 469.333zM512 63.997c-213.333 0-384 170.667-384 384s170.667 384 384 384c213.333 0 384-170.667 384-384s-170.667-384-384-384zM563.2 695.464c-89.6 29.867-187.733-17.067-217.6-102.4-4.267-25.6 4.267-51.2 29.867-55.467 21.333-8.533 46.933 4.267 55.467 25.6 17.067 42.667 64 68.267 110.933 51.2 34.133-12.8 55.467-42.667 55.467-81.067 0-42.667-72.533-76.8-98.133-89.6-21.333-8.533-34.133-29.867-25.6-55.467 4.267-17.067 21.333-29.867 38.4-29.867 4.267 0 8.533 0 12.8 4.267 17.067 4.267 157.867 55.467 157.867 166.4-4.267 76.8-51.2 140.8-119.467 166.4zM482.133 264.53c-8.533-8.533-12.8-17.067-12.8-29.867s4.267-21.333 12.8-29.867c8.533-8.533 17.067-12.8 29.867-12.8s21.333 4.267 29.867 12.8c8.533 8.533 12.8 21.333 12.8 29.867s-4.267 21.333-12.8 29.867c-17.067 17.067-42.667 17.067-59.733 0z" />
<glyph unicode="&#xe917;" glyph-name="home" d="M921.608 609.6l-384 298.667c-17.067 12.8-38.4 12.8-51.2 0l-384-298.667c-12.8-8.533-17.067-21.333-17.067-34.133v-469.333c0-72.533 55.467-128 128-128h597.333c72.533 0 128 55.467 128 128v469.333c0 12.8-4.267 25.6-17.067 34.133zM597.341 63.467h-170.667v341.333h170.667v-341.333zM853.341 106.134c0-25.6-17.067-42.667-42.667-42.667h-128v384c0 25.6-17.067 42.667-42.667 42.667h-256c-25.6 0-42.667-17.067-42.667-42.667v-384h-128c-25.6 0-42.667 17.067-42.667 42.667v448l341.333 264.533 341.333-264.533v-448z" />
<glyph unicode="&#xe918;" glyph-name="image" d="M810.668 874.656h-597.333c-72.533 0-128-55.467-128-128v-597.333c0-72.533 55.467-128 128-128h597.333c72.533 0 128 55.467 128 128v597.333c0 72.533-55.467 128-128 128zM170.668 746.656c0 25.6 17.067 42.667 42.667 42.667h597.333c25.6 0 42.667-17.067 42.667-42.667v-324.267l-140.8 140.8c-17.067 17.067-42.667 17.067-59.733 0l-452.267-452.267c-17.067 4.267-29.867 21.333-29.867 38.4v597.333zM810.668 106.656h-494.933l366.933 366.933 170.667-170.667v-153.6c0-25.6-17.067-42.667-42.667-42.667zM362.668 490.656c59.733 0 106.667 46.933 106.667 106.667s-46.933 106.667-106.667 106.667-106.667-46.933-106.667-106.667 46.933-106.667 106.667-106.667zM362.668 618.656c12.8 0 21.333-8.533 21.333-21.333s-8.533-21.333-21.333-21.333-21.333 8.533-21.333 21.333 8.533 21.333 21.333 21.333z" />
<glyph unicode="&#xe919;" glyph-name="layers" d="M68.267 623.46l426.667-213.333c4.267-4.267 8.533-4.267 17.067-4.267s12.8 0 17.067 4.267l426.667 213.333c17.067 8.533 25.6 21.333 25.6 38.4s-8.533 29.867-25.6 38.4l-426.667 213.333c-12.8 4.267-25.6 4.267-38.4 0l-426.667-213.333c-12.8-8.533-21.333-21.333-21.333-38.4s8.533-29.867 25.6-38.4zM512 828.26l332.8-166.4-332.8-166.4-332.8 166.4 332.8 166.4zM921.6 273.594l-409.6-204.8-409.6 204.8c-21.333 8.533-46.933 0-55.467-17.067s0-46.933 17.067-55.467l426.667-213.333c8.533-8.533 12.8-8.533 21.333-8.533s12.8 0 17.067 4.267l426.667 213.333c21.333 8.533 29.867 34.133 17.067 55.467-8.533 21.333-34.133 29.867-51.2 21.333zM921.6 486.927l-409.6-204.8-409.6 204.8c-21.333 8.533-46.933 0-55.467-17.067-8.533-21.333 0-46.933 17.067-55.467l426.667-213.333c8.533-8.533 12.8-8.533 21.333-8.533s12.8 0 17.067 4.267l426.667 213.333c21.333 8.533 29.867 34.133 17.067 55.467-8.533 21.333-34.133 29.867-51.2 21.333z" />
<glyph unicode="&#xe91a;" glyph-name="link" d="M898.388 842.141c-98.133 98.133-256 98.133-354.133 0l-76.8-72.533c-17.067-17.067-17.067-42.667 0-59.733s42.667-17.067 59.733 0l72.533 72.533c68.267 64 170.667 64 238.933 0s68.267-174.933 4.267-238.933l-128-128c-4.267-4.267-12.8-12.8-17.067-17.067-76.8-55.467-183.467-42.667-238.933 34.133-12.8 17.067-42.667 21.333-59.733 8.533s-21.333-42.667-8.533-59.733c51.2-68.267 128-102.4 204.8-102.4 51.2 0 106.667 17.067 153.6 51.2 8.533 8.533 17.067 17.067 29.867 25.6l128 128c98.133 98.133 93.867 264.533-8.533 358.4zM488.788 189.341l-72.533-72.533c-68.267-64-170.667-64-238.933 0s-68.267 174.933-4.267 238.933l128 128c4.267 4.267 12.8 12.8 17.067 17.067 38.4 25.6 81.067 38.4 128 34.133 46.933-8.533 85.333-29.867 110.933-68.267 12.8-17.067 42.667-21.333 59.733-8.533s21.333 42.667 8.533 59.733c-42.667 55.467-102.4 89.6-166.4 98.133-64 12.8-132.267-4.267-187.733-46.933-8.533-8.533-17.067-17.067-25.6-25.6l-128-128c-98.133-102.4-93.867-264.533 4.267-362.667 51.2-46.933 115.2-72.533 179.2-72.533s128 25.6 179.2 72.533l72.533 72.533c17.067 17.067 17.067 42.667 0 59.733s-46.933 21.333-64 4.267z" />
<glyph unicode="&#xe91b;" glyph-name="link-2" d="M384 277.322h-128c-93.867 0-170.667 76.8-170.667 170.667s76.8 170.667 170.667 170.667h128c25.6 0 42.667 17.067 42.667 42.667s-17.067 42.667-42.667 42.667h-128c-140.8 0-256-115.2-256-256s115.2-256 256-256h128c25.6 0 42.667 17.067 42.667 42.667s-17.067 42.667-42.667 42.667zM768 703.989h-128c-25.6 0-42.667-17.067-42.667-42.667s17.067-42.667 42.667-42.667h128c93.867 0 170.667-76.8 170.667-170.667s-76.8-170.667-170.667-170.667h-128c-25.6 0-42.667-17.067-42.667-42.667s17.067-42.667 42.667-42.667h128c140.8 0 256 115.2 256 256s-115.2 256-256 256zM298.667 447.989c0-25.6 17.067-42.667 42.667-42.667h341.333c25.6 0 42.667 17.067 42.667 42.667s-17.067 42.667-42.667 42.667h-341.333c-25.6 0-42.667-17.067-42.667-42.667z" />
<glyph unicode="&#xe91c;" glyph-name="loader" d="M512 917.33c-25.6 0-42.667-17.067-42.667-42.667v-170.667c0-25.6 17.067-42.667 42.667-42.667s42.667 17.067 42.667 42.667v170.667c0 25.6-17.067 42.667-42.667 42.667zM512 234.664c-25.6 0-42.667-17.067-42.667-42.667v-170.667c0-25.6 17.067-42.667 42.667-42.667s42.667 17.067 42.667 42.667v170.667c0 25.6-17.067 42.667-42.667 42.667zM238.933 780.797c-17.067 17.067-42.667 17.067-59.733 0s-17.067-42.667 0-59.733l119.467-119.467c8.533-8.533 21.333-12.8 29.867-12.8s21.333 4.267 29.867 12.8c17.067 17.067 17.067 42.667 0 59.733l-119.467 119.467zM721.067 298.664c-17.067 17.067-42.667 17.067-59.733 0s-17.067-42.667 0-59.733l119.467-119.467c8.533-8.533 21.333-12.8 29.867-12.8s21.333 4.267 29.867 12.8c17.067 17.067 17.067 42.667 0 59.733l-119.467 119.467zM298.667 447.997c0 25.6-17.067 42.667-42.667 42.667h-170.667c-25.6 0-42.667-17.067-42.667-42.667s17.067-42.667 42.667-42.667h170.667c25.6 0 42.667 17.067 42.667 42.667zM938.667 490.664h-170.667c-25.6 0-42.667-17.067-42.667-42.667s17.067-42.667 42.667-42.667h170.667c25.6 0 42.667 17.067 42.667 42.667s-17.067 42.667-42.667 42.667zM302.933 298.664l-119.467-119.467c-17.067-17.067-17.067-42.667 0-59.733 8.533-8.533 21.333-12.8 29.867-12.8s21.333 4.267 29.867 12.8l119.467 119.467c17.067 17.067 17.067 42.667 0 59.733s-46.933 17.067-59.733 0zM691.2 584.53c12.8 0 21.333 4.267 29.867 12.8l119.467 119.467c17.067 17.067 17.067 42.667 0 59.733s-42.667 17.067-59.733 0l-119.467-119.467c-17.067-17.067-17.067-42.667 0-59.733 8.533-8.533 21.333-12.8 29.867-12.8z" />
<glyph unicode="&#xe91d;" glyph-name="lock" d="M810.675 533.33h-42.667v128c0 140.8-115.2 256-256 256s-256-115.2-256-256v-128h-42.667c-72.533 0-128-55.467-128-128v-298.667c0-72.533 55.467-128 128-128h597.333c72.533 0 128 55.467 128 128v298.667c0 72.533-55.467 128-128 128zM341.341 661.33c0 93.867 76.8 170.667 170.667 170.667s170.667-76.8 170.667-170.667v-128h-341.333v128zM853.341 106.664c0-25.6-17.067-42.667-42.667-42.667h-597.333c-25.6 0-42.667 17.067-42.667 42.667v298.667c0 25.6 17.067 42.667 42.667 42.667h597.333c25.6 0 42.667-17.067 42.667-42.667v-298.667z" />
<glyph unicode="&#xe91e;" glyph-name="mail" d="M853.333 831.996h-682.667c-72.533 0-128-55.467-128-128v-512c0-72.533 55.467-128 128-128h682.667c72.533 0 128 55.467 128 128v512c0 72.533-55.467 128-128 128zM170.667 746.663h682.667c17.067 0 29.867-8.533 38.4-25.6l-379.733-264.533-379.733 264.533c8.533 17.067 21.333 25.6 38.4 25.6zM853.333 149.329h-682.667c-25.6 0-42.667 17.067-42.667 42.667v430.933l358.4-251.733c8.533-4.267 17.067-8.533 25.6-8.533s17.067 4.267 25.6 8.533l358.4 251.733v-430.933c0-25.6-17.067-42.667-42.667-42.667z" />
<glyph unicode="&#xe91f;" glyph-name="map" d="M1002.667 913.063c-12.8 8.533-29.867 8.533-42.667 0l-277.333-162.133-324.267 162.133c0 0 0 0 0 0s0 0-4.267 0c-4.267 4.267-8.533 4.267-12.8 4.267 0 0 0 0 0 0s0 0 0 0c-4.267 0-8.533 0-17.067-4.267 0 0 0 0-4.267 0 0 0-4.267 0-4.267 0l-298.667-170.667c-8.533-8.533-17.067-21.333-17.067-38.4v-682.667c0-17.067 8.533-29.867 21.333-38.4s29.867-8.533 42.667 0l277.333 162.133 320-162.133c0 0 0 0 0 0 8.533-4.267 12.8-4.267 21.333-4.267 4.267 0 8.533 0 12.8 4.267 0 0 4.267 0 4.267 0s0 0 4.267 0l298.667 170.667c12.8 8.533 21.333 21.333 21.333 38.4v682.667c0 17.067-8.533 29.867-21.333 38.4zM384 806.396l256-128v-588.8l-256 128v588.8zM85.333 678.396l213.333 123.733v-584.533l-213.333-123.733v584.533zM938.667 217.596l-213.333-123.733v584.533l213.333 123.733v-584.533z" />
<glyph unicode="&#xe920;" glyph-name="map-pin" d="M512 959.997c-234.667 0-426.667-192-426.667-426.667 0-315.733 388.267-580.267 401.067-588.8 8.533-4.267 17.067-8.533 25.6-8.533s17.067 4.267 25.6 8.533c12.8 8.533 401.067 273.067 401.067 588.8 0 234.667-192 426.667-426.667 426.667zM512 29.864c-81.067 59.733-341.333 273.067-341.333 503.467 0 187.733 153.6 341.333 341.333 341.333s341.333-153.6 341.333-341.333c0-230.4-260.267-443.733-341.333-503.467zM512 703.997c-93.867 0-170.667-76.8-170.667-170.667s76.8-170.667 170.667-170.667c93.867 0 170.667 76.8 170.667 170.667s-76.8 170.667-170.667 170.667zM512 447.997c-46.933 0-85.333 38.4-85.333 85.333s38.4 85.333 85.333 85.333c46.933 0 85.333-38.4 85.333-85.333s-38.4-85.333-85.333-85.333z" />
<glyph unicode="&#xe921;" glyph-name="maximize" d="M341.333 106.656h-128c-25.6 0-42.667 17.067-42.667 42.667v128c0 25.6-17.067 42.667-42.667 42.667s-42.667-17.067-42.667-42.667v-128c0-72.533 55.467-128 128-128h128c25.6 0 42.667 17.067 42.667 42.667s-17.067 42.667-42.667 42.667zM341.333 874.656h-128c-72.533 0-128-55.467-128-128v-128c0-25.6 17.067-42.667 42.667-42.667s42.667 17.067 42.667 42.667v128c0 25.6 17.067 42.667 42.667 42.667h128c25.6 0 42.667 17.067 42.667 42.667s-17.067 42.667-42.667 42.667zM810.667 874.656h-128c-25.6 0-42.667-17.067-42.667-42.667s17.067-42.667 42.667-42.667h128c25.6 0 42.667-17.067 42.667-42.667v-128c0-25.6 17.067-42.667 42.667-42.667s42.667 17.067 42.667 42.667v128c0 72.533-55.467 128-128 128zM896 319.989c-25.6 0-42.667-17.067-42.667-42.667v-128c0-25.6-17.067-42.667-42.667-42.667h-128c-25.6 0-42.667-17.067-42.667-42.667s17.067-42.667 42.667-42.667h128c72.533 0 128 55.467 128 128v128c0 25.6-17.067 42.667-42.667 42.667z" />
<glyph unicode="&#xe922;" glyph-name="minimize" d="M256 319.989h-128c-25.6 0-42.667-17.067-42.667-42.667s17.067-42.667 42.667-42.667h128c25.6 0 42.667-17.067 42.667-42.667v-128c0-25.6 17.067-42.667 42.667-42.667s42.667 17.067 42.667 42.667v128c0 72.533-55.467 128-128 128zM768 575.989h128c25.6 0 42.667 17.067 42.667 42.667s-17.067 42.667-42.667 42.667h-128c-25.6 0-42.667 17.067-42.667 42.667v128c0 25.6-17.067 42.667-42.667 42.667s-42.667-17.067-42.667-42.667v-128c0-72.533 55.467-128 128-128zM896 319.989h-128c-72.533 0-128-55.467-128-128v-128c0-25.6 17.067-42.667 42.667-42.667s42.667 17.067 42.667 42.667v128c0 25.6 17.067 42.667 42.667 42.667h128c25.6 0 42.667 17.067 42.667 42.667s-17.067 42.667-42.667 42.667zM341.333 874.656c-25.6 0-42.667-17.067-42.667-42.667v-128c0-25.6-17.067-42.667-42.667-42.667h-128c-25.6 0-42.667-17.067-42.667-42.667s17.067-42.667 42.667-42.667h128c72.533 0 128 55.467 128 128v128c0 25.6-17.067 42.667-42.667 42.667z" />
<glyph unicode="&#xe923;" glyph-name="minus" d="M810.675 490.663h-597.333c-25.6 0-42.667-17.067-42.667-42.667s17.067-42.667 42.667-42.667h597.333c25.6 0 42.667 17.067 42.667 42.667s-17.067 42.667-42.667 42.667z" />
<glyph unicode="&#xe924;" glyph-name="more-horizontal" d="M597.333 447.989c0-47.128-38.205-85.333-85.333-85.333s-85.333 38.205-85.333 85.333c0 47.128 38.205 85.333 85.333 85.333s85.333-38.205 85.333-85.333zM896 447.989c0-47.128-38.205-85.333-85.333-85.333s-85.333 38.205-85.333 85.333c0 47.128 38.205 85.333 85.333 85.333s85.333-38.205 85.333-85.333zM298.667 447.989c0-47.128-38.205-85.333-85.333-85.333s-85.333 38.205-85.333 85.333c0 47.128 38.205 85.333 85.333 85.333s85.333-38.205 85.333-85.333z" />
<glyph unicode="&#xe925;" glyph-name="more-vertical" d="M597.34 448.003c0-47.128-38.205-85.333-85.333-85.333s-85.333 38.205-85.333 85.333c0 47.128 38.205 85.333 85.333 85.333s85.333-38.205 85.333-85.333zM597.34 746.67c0-47.128-38.205-85.333-85.333-85.333s-85.333 38.205-85.333 85.333c0 47.128 38.205 85.333 85.333 85.333s85.333-38.205 85.333-85.333zM597.34 149.336c0-47.128-38.205-85.333-85.333-85.333s-85.333 38.205-85.333 85.333c0 47.128 38.205 85.333 85.333 85.333s85.333-38.205 85.333-85.333z" />
<glyph unicode="&#xe926;" glyph-name="move" d="M977.067 431.467c4.267 8.533 4.267 21.333 0 34.133-4.267 4.267-4.267 8.533-8.533 12.8l-128 128c-17.067 17.067-42.667 17.067-59.733 0s-17.067-42.667 0-59.733l55.467-55.467h-281.6v281.6l55.467-55.467c8.533-8.533 17.067-12.8 29.867-12.8s21.333 4.267 29.867 12.8c17.067 17.067 17.067 42.667 0 59.733l-128 128c-4.267 4.267-8.533 8.533-12.8 8.533-8.533 4.267-21.333 4.267-34.133 0-4.267-4.267-8.533-4.267-12.8-8.533l-128-128c-17.067-17.067-17.067-42.667 0-59.733s42.667-17.067 59.733 0l55.467 55.467v-281.6h-281.6l55.467 55.467c17.067 17.067 17.067 42.667 0 59.733s-42.667 17.067-59.733 0l-128-128c-4.267-4.267-8.533-8.533-8.533-12.8-4.267-8.533-4.267-21.333 0-34.133 4.267-4.267 4.267-8.533 8.533-12.8l128-128c8.533-8.533 17.067-12.8 29.867-12.8s21.333 4.267 29.867 12.8c17.067 17.067 17.067 42.667 0 59.733l-55.467 55.467h281.6v-281.6l-55.467 55.467c-17.067 17.067-42.667 17.067-59.733 0s-17.067-42.667 0-59.733l128-128c4.267-4.267 8.533-8.533 12.8-8.533 4.267-4.267 12.8-4.267 17.067-4.267s12.8 0 17.067 4.267c4.267 4.267 8.533 4.267 12.8 8.533l128 128c17.067 17.067 17.067 42.667 0 59.733s-42.667 17.067-59.733 0l-55.467-55.467v281.6h281.6l-55.467-55.467c-17.067-17.067-17.067-42.667 0-59.733 8.533-8.533 21.333-12.8 29.867-12.8s21.333 4.267 29.867 12.8l128 128c4.267 4.267 8.533 8.533 8.533 12.8z" />
<glyph unicode="&#xe927;" glyph-name="paperclip" d="M953.463 503.473c-17.067 17.067-42.667 17.067-59.733 0l-392.533-392.533c-85.333-85.333-217.6-85.333-302.933 0s-85.333 217.6 0 302.933l392.533 392.533c46.933 46.933 132.267 46.933 179.2 0 51.2-51.2 51.2-132.267 0-179.2l-392.533-392.533c-17.067-17.067-42.667-17.067-59.733 0-4.267 4.267-8.533 12.8-8.533 25.6s4.267 21.333 12.8 29.867l362.667 362.667c17.067 17.067 17.067 42.667 0 59.733s-42.667 17.067-59.733 0l-362.667-362.667c-25.6-21.333-38.4-55.467-38.4-89.6s12.8-68.267 38.4-89.6c51.2-51.2 132.267-51.2 179.2 0l392.533 392.533c85.333 85.333 85.333 217.6 0 302.933-38.4 38.4-93.867 64-149.333 64s-110.933-21.333-149.333-64l-392.533-392.533c-115.2-115.2-115.2-307.2 0-422.4 59.733-59.733 136.533-85.333 213.333-85.333s153.6 29.867 213.333 85.333l392.533 392.533c8.533 12.8 8.533 42.667-8.533 59.733z" />
<glyph unicode="&#xe928;" glyph-name="plus" d="M810.667 490.671h-256v256c0 25.6-17.067 42.667-42.667 42.667s-42.667-17.067-42.667-42.667v-256h-256c-25.6 0-42.667-17.067-42.667-42.667s17.067-42.667 42.667-42.667h256v-256c0-25.6 17.067-42.667 42.667-42.667s42.667 17.067 42.667 42.667v256h256c25.6 0 42.667 17.067 42.667 42.667s-17.067 42.667-42.667 42.667z" />
<glyph unicode="&#xe929;" glyph-name="printer" d="M853.34 618.656h-42.667v256c0 25.6-17.067 42.667-42.667 42.667h-512c-25.6 0-42.667-17.067-42.667-42.667v-256h-42.667c-72.533 0-128-55.467-128-128v-213.333c0-72.533 55.467-128 128-128h42.667v-128c0-25.6 17.067-42.667 42.667-42.667h512c25.6 0 42.667 17.067 42.667 42.667v128h42.667c72.533 0 128 55.467 128 128v213.333c0 72.533-55.467 128-128 128zM298.674 831.989h426.667v-213.333h-426.667v213.333zM725.34 63.989h-426.667v256h426.667v-256zM896.007 277.322c0-25.6-17.067-42.667-42.667-42.667h-42.667v128c0 25.6-17.067 42.667-42.667 42.667h-512c-25.6 0-42.667-17.067-42.667-42.667v-128h-42.667c-25.6 0-42.667 17.067-42.667 42.667v213.333c0 25.6 17.067 42.667 42.667 42.667h682.667c25.6 0 42.667-17.067 42.667-42.667v-213.333z" />
<glyph unicode="&#xe92a;" glyph-name="rotate-cw" d="M980.416 528.087c0 0 0 4.267 0 4.267v256c0 25.6-17.067 42.667-42.667 42.667s-42.667-17.067-42.667-42.667v-157.867l-123.733 119.467c-42.667 42.667-98.133 81.067-157.867 102.4-226.133 76.8-469.333-42.667-546.133-264.533s38.4-465.067 260.267-546.133c46.933-12.8 93.867-21.333 140.8-21.333 174.933 0 341.333 110.933 401.067 285.867 8.533 21.333-4.267 46.933-25.6 55.467s-46.933-4.267-55.467-25.6c-64-179.2-256-268.8-435.2-209.067-179.2 64-268.8 256-209.067 435.2 64 174.933 260.267 268.8 439.467 204.8 46.933-17.067 93.867-42.667 128-81.067l119.467-110.933h-149.333c-25.6 0-42.667-17.067-42.667-42.667s17.067-42.667 42.667-42.667h256c0 0 0 0 0 0 4.267 0 8.533 0 8.533 4.267 0 0 4.267 0 4.267 0s4.267 4.267 4.267 4.267c4.267 0 8.533 4.267 8.533 8.533 0 0 0 0 0 0s0 4.267 4.267 4.267c0 4.267 4.267 4.267 4.267 8.533 8.533 0 8.533 4.267 8.533 8.533z" />
<glyph unicode="&#xe92b;" glyph-name="search" d="M925.867 93.863l-157.867 157.867c51.2 64 85.333 149.333 85.333 238.933 0 213.333-170.667 384-384 384s-384-170.667-384-384c0-213.333 170.667-384 384-384 89.6 0 174.933 29.867 238.933 85.333l157.867-157.867c8.533-8.533 21.333-12.8 29.867-12.8s21.333 4.267 29.867 12.8c17.067 17.067 17.067 42.667 0 59.733zM170.667 490.663c0 166.4 132.267 298.667 298.667 298.667s298.667-132.267 298.667-298.667c0-81.067-34.133-157.867-85.333-209.067 0 0 0 0 0 0s0 0 0 0c-55.467-55.467-128-85.333-209.067-85.333-170.667-4.267-302.933 128-302.933 294.4z" />
<glyph unicode="&#xe92c;" glyph-name="send" d="M981.34 876.797c0 4.267 0 8.533-4.267 12.8 0 0 0 4.267 0 4.267 0 4.267-4.267 8.533-8.533 12.8s-8.533 4.267-12.8 8.533c0 0-4.267 0-4.267 0-4.267 0-8.533 0-12.8 4.267 0-4.267 0-4.267 0-4.267-4.267 0-8.533 0-12.8-4.267l-853.333-298.667c-17.067-4.267-29.867-17.067-29.867-38.4 0-17.067 8.533-34.133 25.6-42.667l366.933-162.133 162.133-366.933c8.533-17.067 21.333-25.6 38.4-25.6 0 0 0 0 0 0 17.067 0 34.133 12.8 38.4 29.867l298.667 853.333c8.533 4.267 8.533 8.533 8.533 17.067 0-4.267 0-4.267 0 0zM776.54 770.131l-315.733-315.733-260.267 115.2 576 200.533zM635.74 134.397l-115.2 260.267 315.733 315.733-200.533-576z" />
<glyph unicode="&#xe92d;" glyph-name="server" d="M853.333 917.337h-682.667c-72.533 0-128-55.467-128-128v-170.667c0-72.533 55.467-128 128-128h682.667c72.533 0 128 55.467 128 128v170.667c0 72.533-55.467 128-128 128zM896 618.671c0-25.6-17.067-42.667-42.667-42.667h-682.667c-25.6 0-42.667 17.067-42.667 42.667v170.667c0 25.6 17.067 42.667 42.667 42.667h682.667c25.6 0 42.667-17.067 42.667-42.667v-170.667zM853.333 405.337h-682.667c-72.533 0-128-55.467-128-128v-170.667c0-72.533 55.467-128 128-128h682.667c72.533 0 128 55.467 128 128v170.667c0 72.533-55.467 128-128 128zM896 106.671c0-25.6-17.067-42.667-42.667-42.667h-682.667c-25.6 0-42.667 17.067-42.667 42.667v170.667c0 25.6 17.067 42.667 42.667 42.667h682.667c25.6 0 42.667-17.067 42.667-42.667v-170.667zM226.133 733.871c-8.533-8.533-12.8-17.067-12.8-29.867s4.267-21.333 12.8-29.867c8.533-8.533 17.067-12.8 29.867-12.8s21.333 4.267 29.867 12.8c8.533 8.533 12.8 17.067 12.8 29.867s-4.267 21.333-12.8 29.867c-17.067 17.067-42.667 17.067-59.733 0zM226.133 221.871c-8.533-8.533-12.8-17.067-12.8-29.867s4.267-21.333 12.8-29.867c8.533-8.533 17.067-12.8 29.867-12.8s21.333 4.267 29.867 12.8c8.533 8.533 12.8 17.067 12.8 29.867s-4.267 21.333-12.8 29.867c-17.067 17.067-42.667 17.067-59.733 0z" />
<glyph unicode="&#xe92e;" glyph-name="share" d="M853.333 491.194c-25.6 0-42.667-17.067-42.667-42.667v-341.333c0-25.6-17.067-42.667-42.667-42.667h-512c-25.6 0-42.667 17.067-42.667 42.667v341.333c0 25.6-17.067 42.667-42.667 42.667s-42.667-17.067-42.667-42.667v-341.333c0-72.533 55.467-128 128-128h512c72.533 0 128 55.467 128 128v341.333c0 25.6-17.067 42.667-42.667 42.667zM371.2 674.66l98.133 98.133v-452.267c0-25.6 17.067-42.667 42.667-42.667s42.667 17.067 42.667 42.667v452.267l98.133-98.133c8.533-8.533 17.067-12.8 29.867-12.8s21.333 4.267 29.867 12.8c17.067 17.067 17.067 42.667 0 59.733l-170.667 170.667c-4.267 4.267-8.533 8.533-12.8 8.533-8.533 4.267-21.333 4.267-34.133 0-4.267-4.267-8.533-4.267-12.8-8.533l-170.667-170.667c-17.067-17.067-17.067-42.667 0-59.733s42.667-17.067 59.733 0z" />
<glyph unicode="&#xe92f;" glyph-name="shield" d="M870.4 785.601l-341.333 128c-8.533 4.267-21.333 4.267-29.867 0l-341.333-128c-17.067-4.267-29.867-21.333-29.867-38.4v-298.667c0-277.333 349.867-456.533 366.933-465.067 4.267-4.267 8.533-4.267 17.067-4.267s12.8 0 17.067 4.267c17.067 8.533 366.933 187.733 366.933 465.067v298.667c0 17.067-12.8 34.133-25.6 38.4zM810.667 448.534c0-192-230.4-337.067-298.667-379.733-68.267 38.4-298.667 183.467-298.667 379.733v268.8l298.667 110.933 298.667-110.933v-268.8z" />
<glyph unicode="&#xe930;" glyph-name="shuffle" d="M913.063 849.056c-4.267 8.533-12.8 17.067-21.333 21.333-4.267 4.267-12.8 4.267-17.067 4.267h-213.333c-25.6 0-42.667-17.067-42.667-42.667s17.067-42.667 42.667-42.667h110.933l-652.8-652.8c-17.067-17.067-17.067-42.667 0-59.733 8.533-8.533 17.067-12.8 29.867-12.8s21.333 4.267 29.867 12.8l652.8 652.8v-110.933c0-25.6 17.067-42.667 42.667-42.667s42.667 17.067 42.667 42.667v213.333c0 4.267 0 12.8-4.267 17.067zM874.663 319.989c-25.6 0-42.667-17.067-42.667-42.667v-110.933l-183.467 183.467c-17.067 17.067-42.667 17.067-59.733 0s-17.067-42.667 0-59.733l183.467-183.467h-110.933c-25.6 0-42.667-17.067-42.667-42.667s17.067-42.667 42.667-42.667h213.333c4.267 0 12.8 0 17.067 4.267 8.533 4.267 17.067 12.8 21.333 21.333 4.267 4.267 4.267 12.8 4.267 17.067v213.333c0 25.6-17.067 42.667-42.667 42.667zM332.796 546.122c8.533-8.533 17.067-12.8 29.867-12.8s21.333 4.267 29.867 12.8c17.067 17.067 17.067 42.667 0 59.733l-213.333 213.333c-17.067 17.067-42.667 17.067-59.733 0s-17.067-42.667 0-59.733l213.333-213.333z" />
<glyph unicode="&#xe931;" glyph-name="terminal" d="M456.54 520.529l-256 256c-17.067 17.067-42.667 17.067-59.733 0s-17.067-42.667 0-59.733l226.133-226.133-226.133-226.133c-17.067-17.067-17.067-42.667 0-59.733 8.533-8.533 17.067-12.8 29.867-12.8s21.333 4.267 29.867 12.8l256 256c17.067 17.067 17.067 42.667 0 59.733zM853.34 191.996h-341.333c-25.6 0-42.667-17.067-42.667-42.667s17.067-42.667 42.667-42.667h341.333c25.6 0 42.667 17.067 42.667 42.667s-17.067 42.667-42.667 42.667z" />
<glyph unicode="&#xe932;" glyph-name="thumbs-up" d="M948.796 567.47c-21.333 25.6-51.2 46.933-85.333 51.2-8.533 0-12.8 0-21.333 0h-196.267v128c0 93.867-76.8 170.667-170.667 170.667-17.067 0-34.133-8.533-38.4-25.6l-157.867-358.4h-102.4c-72.533 0-128-55.467-128-128v-298.667c0-72.533 55.467-128 128-128h610.133c0 0 0 0 0 0 64 0 115.2 46.933 128 106.667l59.733 384c4.267 34.133-4.267 68.267-25.6 98.133zM261.863 64.003h-85.333c-25.6 0-42.667 17.067-42.667 42.667v298.667c0 25.6 17.067 42.667 42.667 42.667h85.333v-384zM829.33 98.136c-4.267-21.333-21.333-34.133-42.667-34.133 0 0 0 0 0 0h-439.467v418.133l153.6 345.6c34.133-12.8 59.733-42.667 59.733-81.067v-170.667c0-25.6 17.067-42.667 42.667-42.667h243.2c4.267 0 4.267 0 8.533 0 12.8 0 21.333-8.533 29.867-17.067s8.533-21.333 8.533-29.867l-64-388.267z" />
<glyph unicode="&#xe933;" glyph-name="download" d="M896.015 362.679c-25.6 0-42.667-17.067-42.667-42.667v-170.667c0-25.6-17.067-42.667-42.667-42.667h-597.333c-25.6 0-42.667 17.067-42.667 42.667v170.667c0 25.6-17.067 42.667-42.667 42.667s-42.667-17.067-42.667-42.667v-170.667c0-72.533 55.467-128 128-128h597.333c72.533 0 128 55.467 128 128v170.667c0 25.6-17.067 42.667-42.667 42.667zM482.148 290.145c4.267-4.267 8.533-8.533 12.8-8.533 4.267-4.267 12.8-4.267 17.067-4.267s12.8 0 17.067 4.267c4.267 4.267 8.533 4.267 12.8 8.533l213.333 213.333c17.067 17.067 17.067 42.667 0 59.733s-42.667 17.067-59.733 0l-140.8-140.8v409.6c0 25.6-17.067 42.667-42.667 42.667s-42.667-17.067-42.667-42.667v-409.6l-140.8 140.8c-17.067 17.067-42.667 17.067-59.733 0s-17.067-42.667 0-59.733l213.333-213.333z" />
<glyph unicode="&#xe934;" glyph-name="bell" d="M605.867 102.404c-21.333 12.8-46.933 4.267-59.733-17.067s-38.4-25.6-59.733-17.067c-8.533 4.267-12.8 8.533-17.067 17.067-12.8 21.333-38.4 25.6-59.733 17.067-21.333-12.8-25.6-38.4-17.067-59.733 12.8-21.333 25.6-34.133 46.933-46.933s42.667-17.067 64-17.067c42.667 0 85.333 21.333 110.933 64 21.333 21.333 12.8 46.933-8.533 59.733zM938.667 277.337c-46.933 0-85.333 38.4-85.333 85.333v213.333c0 187.733-153.6 341.333-341.333 341.333s-341.333-153.6-341.333-341.333v-213.333c0-46.933-38.4-85.333-85.333-85.333-25.6 0-42.667-17.067-42.667-42.667s17.067-42.667 42.667-42.667h853.333c25.6 0 42.667 17.067 42.667 42.667s-17.067 42.667-42.667 42.667zM234.667 277.337c12.8 25.6 21.333 55.467 21.333 85.333v213.333c0 140.8 115.2 256 256 256s256-115.2 256-256v-213.333c0-29.867 8.533-59.733 21.333-85.333h-554.667z" />
<glyph unicode="&#xe935;" glyph-name="book-open" d="M938.667 874.656h-256c-68.267 0-132.267-34.133-170.667-85.333-38.4 51.2-102.4 85.333-170.667 85.333h-256c-25.6 0-42.667-17.067-42.667-42.667v-640c0-25.6 17.067-42.667 42.667-42.667h298.667c46.933 0 85.333-38.4 85.333-85.333 0-25.6 17.067-42.667 42.667-42.667s42.667 17.067 42.667 42.667c0 46.933 38.4 85.333 85.333 85.333h298.667c25.6 0 42.667 17.067 42.667 42.667v640c0 25.6-17.067 42.667-42.667 42.667zM469.333 213.322c-25.6 12.8-55.467 21.333-85.333 21.333h-256v554.667h213.333c72.533 0 128-55.467 128-128v-448zM896 234.656h-256c-29.867 0-59.733-8.533-85.333-21.333v448c0 72.533 55.467 128 128 128h213.333v-554.667z" />
<glyph unicode="&#xe936;" glyph-name="box" d="M908.8 763.73l-341.333 170.667c0 0 0 0 0 0-34.133 17.067-76.8 17.067-115.2 0l-341.333-170.667c-42.667-21.333-68.267-64-68.267-110.933v-405.333c0-46.933 25.6-93.867 72.533-115.2l341.333-170.667c17.067-8.533 38.4-12.8 55.467-12.8 21.333 0 38.4 4.267 55.467 12.8l341.333 170.667c42.667 21.333 72.533 64 72.533 115.2v405.333c0 46.933-25.6 89.6-72.533 110.933zM494.933 861.864c4.267 4.267 12.8 4.267 17.067 4.267 8.533 0 12.8 0 17.067-4.267l315.733-157.867-332.8-166.4-332.8 166.4 315.733 157.867zM149.333 204.797c-12.8 8.533-21.333 25.6-21.333 38.4v392.533l341.333-170.667v-418.133l-320 157.867zM870.4 204.797l-315.733-157.867v418.133l341.333 170.667v-392.533c0-17.067-8.533-29.867-25.6-38.4z" />
<glyph unicode="&#xe937;" glyph-name="calendar" d="M810.682 831.989h-85.333v42.667c0 25.6-17.067 42.667-42.667 42.667s-42.667-17.067-42.667-42.667v-42.667h-256v42.667c0 25.6-17.067 42.667-42.667 42.667s-42.667-17.067-42.667-42.667v-42.667h-85.333c-72.533 0-128-55.467-128-128v-597.333c0-72.533 55.467-128 128-128h597.333c72.533 0 128 55.467 128 128v597.333c0 72.533-55.467 128-128 128zM213.348 746.656h85.333v-42.667c0-25.6 17.067-42.667 42.667-42.667s42.667 17.067 42.667 42.667v42.667h256v-42.667c0-25.6 17.067-42.667 42.667-42.667s42.667 17.067 42.667 42.667v42.667h85.333c25.6 0 42.667-17.067 42.667-42.667v-128h-682.667v128c0 25.6 17.067 42.667 42.667 42.667zM810.682 63.989h-597.333c-25.6 0-42.667 17.067-42.667 42.667v384h682.667v-384c0-25.6-17.067-42.667-42.667-42.667z" />
<glyph unicode="&#xe938;" glyph-name="camera" d="M895.985 746.656h-149.333l-72.533 110.933c-8.533 8.533-21.333 17.067-34.133 17.067h-256c-12.8 0-25.6-8.533-34.133-17.067l-72.533-110.933h-149.333c-72.533 0-128-55.467-128-128v-469.333c0-72.533 55.467-128 128-128h768c72.533 0 128 55.467 128 128v469.333c0 72.533-55.467 128-128 128zM938.652 149.322c0-25.6-17.067-42.667-42.667-42.667h-768c-25.6 0-42.667 17.067-42.667 42.667v469.333c0 25.6 17.067 42.667 42.667 42.667h170.667c12.8 0 25.6 8.533 34.133 17.067l72.533 110.933h209.067l72.533-110.933c12.8-8.533 25.6-17.067 38.4-17.067h170.667c25.6 0 42.667-17.067 42.667-42.667v-469.333zM511.985 618.656c-119.467 0-213.333-93.867-213.333-213.333s93.867-213.333 213.333-213.333 213.333 93.867 213.333 213.333-93.867 213.333-213.333 213.333zM511.985 277.322c-72.533 0-128 55.467-128 128s55.467 128 128 128 128-55.467 128-128-55.467-128-128-128z" />
<glyph unicode="&#xe939;" glyph-name="chevrons-left" d="M315.726 447.989l183.467 183.467c17.067 17.067 17.067 42.667 0 59.733s-42.667 17.067-59.733 0l-213.333-213.333c-17.067-17.067-17.067-42.667 0-59.733l213.333-213.333c8.533-8.533 21.333-12.8 29.867-12.8s21.333 4.267 29.867 12.8c17.067 17.067 17.067 42.667 0 59.733l-183.467 183.467zM614.393 447.989l183.467 183.467c17.067 17.067 17.067 42.667 0 59.733s-42.667 17.067-59.733 0l-213.333-213.333c-17.067-17.067-17.067-42.667 0-59.733l213.333-213.333c8.533-8.533 21.333-12.8 29.867-12.8s21.333 4.267 29.867 12.8c17.067 17.067 17.067 42.667 0 59.733l-183.467 183.467z" />
<glyph unicode="&#xe93a;" glyph-name="chevrons-right" d="M797.86 477.856l-213.333 213.333c-17.067 17.067-42.667 17.067-59.733 0s-17.067-42.667 0-59.733l183.467-183.467-183.467-183.467c-17.067-17.067-17.067-42.667 0-59.733 8.533-8.533 21.333-12.8 29.867-12.8s21.333 4.267 29.867 12.8l213.333 213.333c17.067 17.067 17.067 42.667 0 59.733zM499.193 477.856l-213.333 213.333c-17.067 17.067-42.667 17.067-59.733 0s-17.067-42.667 0-59.733l183.467-183.467-183.467-183.467c-17.067-17.067-17.067-42.667 0-59.733 8.533-8.533 17.067-12.8 29.867-12.8s21.333 4.267 29.867 12.8l213.333 213.333c17.067 17.067 17.067 42.667 0 59.733z" />
<glyph unicode="&#xe93b;" glyph-name="crop" d="M981.333 234.671h-170.667v384c0 72.533-55.467 128-128 128l-379.733-4.267v174.933c0 25.6-17.067 42.667-42.667 42.667 0 0 0 0 0 0-21.333 0-42.667-17.067-42.667-42.667v-174.933h-174.933c-25.6 0-42.667-21.333-42.667-42.667s21.333-42.667 42.667-42.667c0 0 0 0 0 0h174.933l-4.267-379.733c0-72.533 55.467-128 128-128h384v-170.667c0-25.6 17.067-42.667 42.667-42.667s42.667 17.067 42.667 42.667v170.667h170.667c25.6 0 42.667 17.067 42.667 42.667s-17.067 42.667-42.667 42.667zM341.333 234.671c-25.6 0-42.667 17.067-42.667 42.667l4.267 379.733 379.733 4.267c25.6 0 42.667-17.067 42.667-42.667v-384h-384z" />
<glyph unicode="&#xe93c;" glyph-name="database" d="M512 917.33c-204.8 0-426.667-55.467-426.667-170.667v-597.333c0-115.2 221.867-170.667 426.667-170.667s426.667 55.467 426.667 170.667v597.333c0 115.2-221.867 170.667-426.667 170.667zM853.333 447.997c0-21.333-106.667-85.333-341.333-85.333s-341.333 64-341.333 85.333v192c81.067-42.667 213.333-64 341.333-64s260.267 21.333 341.333 64v-192zM512 831.997c221.867 0 341.333-64 341.333-85.333s-119.467-85.333-341.333-85.333c-221.867 0-341.333 64-341.333 85.333s119.467 85.333 341.333 85.333zM512 63.997c-234.667 0-341.333 64-341.333 85.333v192c81.067-42.667 213.333-64 341.333-64s260.267 21.333 341.333 64v-192c0-21.333-106.667-85.333-341.333-85.333z" />
<glyph unicode="&#xe93d;" glyph-name="download-cloud" d="M650.615 264.522l-98.133-98.133v281.6c0 25.6-17.067 42.667-42.667 42.667s-42.667-17.067-42.667-42.667v-281.6l-98.133 98.133c-17.067 17.067-42.667 17.067-59.733 0s-17.067-42.667 0-59.733l170.667-170.667c4.267-4.267 8.533-8.533 12.8-8.533 4.267-4.267 12.8-4.267 17.067-4.267s12.8 0 17.067 4.267c4.267 4.267 8.533 4.267 12.8 8.533l170.667 170.667c17.067 17.067 17.067 42.667 0 59.733s-42.667 17.067-59.733 0zM974.882 511.989c-46.933 64-123.733 106.667-209.067 106.667 0 0 0 0 0 0h-21.333c-64 187.733-264.533 294.4-456.533 243.2-102.4-25.6-183.467-85.333-238.933-174.933-51.2-89.6-68.267-192-42.667-290.133 17.067-59.733 42.667-115.2 85.333-157.867 17.067-17.067 42.667-21.333 59.733-4.267s21.333 42.667 4.267 59.733c-29.867 34.133-55.467 76.8-64 123.733-21.333 76.8-8.533 157.867 34.133 226.133s106.667 119.467 183.467 136.533c157.867 42.667 324.267-55.467 362.667-213.333 4.267-17.067 21.333-34.133 42.667-34.133h51.2c0 0 0 0 0 0 55.467 0 106.667-25.6 140.8-72.533 25.6-38.4 38.4-81.067 29.867-128s-34.133-85.333-68.267-110.933c-21.333-12.8-25.6-38.4-8.533-59.733 8.533-12.8 21.333-17.067 34.133-17.067 8.533 0 17.067 4.267 25.6 8.533 55.467 38.4 93.867 98.133 106.667 166.4s-12.8 132.267-51.2 192z" />
<glyph unicode="&#xe93e;" glyph-name="droplet" d="M784.53 650.668l-243.2 238.933c-8.533 8.533-17.067 12.8-29.867 12.8v0c-12.8 0-21.333-4.267-29.867-12.8l-238.933-238.933c0 0 0 0 0 0-76.8-72.533-115.2-170.667-115.2-273.067s38.4-200.533 110.933-273.067c72.533-72.533 170.667-110.933 273.067-110.933 0 0 0 0 0 0 102.4 0 200.533 38.4 273.067 110.933 149.333 149.333 149.333 392.533 0 546.133zM724.796 164.268c-59.733-55.467-132.267-85.333-213.333-85.333 0 0 0 0 0 0-81.067 0-153.6 29.867-209.067 85.333-59.733 59.733-89.6 132.267-89.6 213.333s29.867 153.6 85.333 209.067c0 0 0 0 0 0l209.067 213.333 213.333-213.333c119.467-115.2 119.467-302.933 4.267-422.4z" />
<glyph unicode="&#xe93f;" glyph-name="edit-2" d="M925.861 648.522l-213.333 213.333c-17.067 17.067-42.667 17.067-59.733 0l-554.667-554.667c-8.533-8.533-12.8-17.067-12.8-29.867v-213.333c0-25.6 17.067-42.667 42.667-42.667h213.333c12.8 0 21.333 4.267 29.867 12.8l554.667 554.667c17.067 17.067 17.067 42.667 0 59.733zM324.261 106.656h-153.6v153.6l512 512 153.6-153.6-512-512z" />
<glyph unicode="&#xe940;" glyph-name="file" d="M891.733 593.063c-4.267 4.267-4.267 8.533-8.533 12.8l-298.667 298.667c-4.267 4.267-8.533 8.533-12.8 8.533-4.267 4.267-12.8 4.267-17.067 4.267h-298.667c-72.533 0-128-55.467-128-128v-682.667c0-72.533 55.467-128 128-128h512c72.533 0 128 55.467 128 128v469.333c0 4.267 0 12.8-4.267 17.067zM597.333 772.263l153.6-153.6h-153.6v153.6zM768 63.996h-512c-25.6 0-42.667 17.067-42.667 42.667v682.667c0 25.6 17.067 42.667 42.667 42.667h256v-256c0-25.6 17.067-42.667 42.667-42.667h256v-426.667c0-25.6-17.067-42.667-42.667-42.667z" />
<glyph unicode="&#xe941;" glyph-name="folder" d="M853.333 746.671h-362.667l-72.533 110.933c-8.533 8.533-21.333 17.067-34.133 17.067h-213.333c-72.533 0-128-55.467-128-128v-597.333c0-72.533 55.467-128 128-128h682.667c72.533 0 128 55.467 128 128v469.333c0 72.533-55.467 128-128 128zM896 149.337c0-25.6-17.067-42.667-42.667-42.667h-682.667c-25.6 0-42.667 17.067-42.667 42.667v597.333c0 25.6 17.067 42.667 42.667 42.667h192l72.533-110.933c8.533-8.533 21.333-17.067 34.133-17.067h384c25.6 0 42.667-17.067 42.667-42.667v-469.333z" />
<glyph unicode="&#xe942;" glyph-name="hash" d="M853.326 362.343h-179.2l17.067 170.667h162.133c25.6 0 42.667 17.067 42.667 42.667s-17.067 42.667-42.667 42.667h-149.333l21.333 209.067c4.267 21.333-12.8 42.667-38.4 46.933-21.333 4.267-42.667-12.8-46.933-38.4l-25.6-217.6h-170.667l25.6 209.067c4.267 21.333-12.8 42.667-38.4 46.933-21.333 4.267-42.667-12.8-46.933-38.4l-25.6-217.6h-187.733c-25.6 0-42.667-17.067-42.667-42.667s17.067-42.667 42.667-42.667h179.2l-17.067-170.667h-162.133c-25.6 0-42.667-17.067-42.667-42.667s17.067-42.667 42.667-42.667h149.333l-21.333-209.067c-4.267-21.333 12.8-42.667 38.4-46.933 0 0 4.267 0 4.267 0 21.333 0 38.4 17.067 42.667 38.4l25.6 217.6h170.667l-25.6-209.067c-4.267-21.333 12.8-42.667 38.4-46.933 0 0 4.267 0 4.267 0 21.333 0 38.4 17.067 42.667 38.4l25.6 217.6h187.733c25.6 0 42.667 17.067 42.667 42.667s-17.067 42.667-42.667 42.667zM418.126 362.343l17.067 170.667h170.667l-17.067-170.667h-170.667z" />
<glyph unicode="&#xe943;" glyph-name="log-in" d="M810.675 874.656h-170.667c-25.6 0-42.667-17.067-42.667-42.667s17.067-42.667 42.667-42.667h170.667c25.6 0 42.667-17.067 42.667-42.667v-597.333c0-25.6-17.067-42.667-42.667-42.667h-170.667c-25.6 0-42.667-17.067-42.667-42.667s17.067-42.667 42.667-42.667h170.667c72.533 0 128 55.467 128 128v597.333c0 72.533-55.467 128-128 128zM678.408 430.922c4.267 8.533 4.267 21.333 0 34.133-4.267 4.267-4.267 8.533-8.533 12.8l-213.333 213.333c-17.067 17.067-42.667 17.067-59.733 0s-17.067-42.667 0-59.733l140.8-140.8h-409.6c-25.6 0-42.667-17.067-42.667-42.667s17.067-42.667 42.667-42.667h409.6l-140.8-140.8c-17.067-17.067-17.067-42.667 0-59.733 8.533-8.533 17.067-12.8 29.867-12.8s21.333 4.267 29.867 12.8l213.333 213.333c4.267 4.267 8.533 8.533 8.533 12.8z" />
<glyph unicode="&#xe944;" glyph-name="log-out" d="M384.53 106.671h-170.667c-25.6 0-42.667 17.067-42.667 42.667v597.333c0 25.6 17.067 42.667 42.667 42.667h170.667c25.6 0 42.667 17.067 42.667 42.667s-17.067 42.667-42.667 42.667h-170.667c-72.533 0-128-55.467-128-128v-597.333c0-72.533 55.467-128 128-128h170.667c25.6 0 42.667 17.067 42.667 42.667s-17.067 42.667-42.667 42.667zM934.93 430.937c4.267 8.533 4.267 21.333 0 34.133-4.267 4.267-4.267 8.533-8.533 12.8l-213.333 213.333c-17.067 17.067-42.667 17.067-59.733 0s-17.067-42.667 0-59.733l140.8-140.8h-409.6c-25.6 0-42.667-17.067-42.667-42.667s17.067-42.667 42.667-42.667h409.6l-140.8-140.8c-17.067-17.067-17.067-42.667 0-59.733 8.533-8.533 21.333-12.8 29.867-12.8s21.333 4.267 29.867 12.8l213.333 213.333c4.267 4.267 8.533 8.533 8.533 12.8z" />
<glyph unicode="&#xe945;" glyph-name="plus-circle" d="M512 917.337c-260.267 0-469.333-209.067-469.333-469.333s209.067-469.333 469.333-469.333 469.333 209.067 469.333 469.333-209.067 469.333-469.333 469.333zM512 64.004c-213.333 0-384 170.667-384 384s170.667 384 384 384c213.333 0 384-170.667 384-384s-170.667-384-384-384zM682.667 490.671h-128v128c0 25.6-17.067 42.667-42.667 42.667s-42.667-17.067-42.667-42.667v-128h-128c-25.6 0-42.667-17.067-42.667-42.667s17.067-42.667 42.667-42.667h128v-128c0-25.6 17.067-42.667 42.667-42.667s42.667 17.067 42.667 42.667v128h128c25.6 0 42.667 17.067 42.667 42.667s-17.067 42.667-42.667 42.667z" />
<glyph unicode="&#xe946;" glyph-name="sliders" d="M170.667 490.656c25.6 0 42.667 17.067 42.667 42.667v298.667c0 25.6-17.067 42.667-42.667 42.667s-42.667-17.067-42.667-42.667v-298.667c0-25.6 17.067-42.667 42.667-42.667zM512 490.656c-25.6 0-42.667-17.067-42.667-42.667v-384c0-25.6 17.067-42.667 42.667-42.667s42.667 17.067 42.667 42.667v384c0 25.6-17.067 42.667-42.667 42.667zM853.333 405.322c25.6 0 42.667 17.067 42.667 42.667v384c0 25.6-17.067 42.667-42.667 42.667s-42.667-17.067-42.667-42.667v-384c0-25.6 17.067-42.667 42.667-42.667zM298.667 405.322h-256c-25.6 0-42.667-17.067-42.667-42.667s17.067-42.667 42.667-42.667h85.333v-256c0-25.6 17.067-42.667 42.667-42.667s42.667 17.067 42.667 42.667v256h85.333c25.6 0 42.667 17.067 42.667 42.667s-17.067 42.667-42.667 42.667zM640 661.322h-85.333v170.667c0 25.6-17.067 42.667-42.667 42.667s-42.667-17.067-42.667-42.667v-170.667h-85.333c-25.6 0-42.667-17.067-42.667-42.667s17.067-42.667 42.667-42.667h256c25.6 0 42.667 17.067 42.667 42.667s-17.067 42.667-42.667 42.667zM981.333 319.989h-256c-25.6 0-42.667-17.067-42.667-42.667s17.067-42.667 42.667-42.667h85.333v-170.667c0-25.6 17.067-42.667 42.667-42.667s42.667 17.067 42.667 42.667v170.667h85.333c25.6 0 42.667 17.067 42.667 42.667s-17.067 42.667-42.667 42.667z" />
<glyph unicode="&#xe947;" glyph-name="trash-2" d="M896 746.664h-170.667v42.667c0 72.533-55.467 128-128 128h-170.667c-72.533 0-128-55.467-128-128v-42.667h-170.667c-25.6 0-42.667-17.067-42.667-42.667s17.067-42.667 42.667-42.667h42.667v-554.667c0-72.533 55.467-128 128-128h426.667c72.533 0 128 55.467 128 128v554.667h42.667c25.6 0 42.667 17.067 42.667 42.667s-17.067 42.667-42.667 42.667zM384 789.33c0 25.6 17.067 42.667 42.667 42.667h170.667c25.6 0 42.667-17.067 42.667-42.667v-42.667h-256v42.667zM768 106.664c0-25.6-17.067-42.667-42.667-42.667h-426.667c-25.6 0-42.667 17.067-42.667 42.667v554.667h512v-554.667zM426.667 533.33c-25.6 0-42.667-17.067-42.667-42.667v-256c0-25.6 17.067-42.667 42.667-42.667s42.667 17.067 42.667 42.667v256c0 25.6-17.067 42.667-42.667 42.667zM597.333 533.33c-25.6 0-42.667-17.067-42.667-42.667v-256c0-25.6 17.067-42.667 42.667-42.667s42.667 17.067 42.667 42.667v256c0 25.6-17.067 42.667-42.667 42.667z" />
<glyph unicode="&#xe948;" glyph-name="upload" d="M896.008 363.201c-25.6 0-42.667-17.067-42.667-42.667v-170.667c0-25.6-17.067-42.667-42.667-42.667h-597.333c-25.6 0-42.667 17.067-42.667 42.667v170.667c0 25.6-17.067 42.667-42.667 42.667s-42.667-17.067-42.667-42.667v-170.667c0-72.533 55.467-128 128-128h597.333c72.533 0 128 55.467 128 128v170.667c0 25.6-17.067 42.667-42.667 42.667zM328.541 589.334l140.8 140.8v-409.6c0-25.6 17.067-42.667 42.667-42.667s42.667 17.067 42.667 42.667v409.6l140.8-140.8c8.533-8.533 17.067-12.8 29.867-12.8s21.333 4.267 29.867 12.8c17.067 17.067 17.067 42.667 0 59.733l-213.333 213.333c-4.267 4.267-8.533 8.533-12.8 8.533-8.533 4.267-21.333 4.267-34.133 0-4.267-4.267-8.533-4.267-12.8-8.533l-213.333-213.333c-17.067-17.067-17.067-42.667 0-59.733s42.667-17.067 59.733 0z" />
<glyph unicode="&#xe949;" glyph-name="upload-cloud" d="M996.102 486.397c-46.933 81.067-132.267 132.267-226.133 132.267h-21.333c-64 187.733-264.533 294.4-456.533 243.2-102.4-25.6-183.467-89.6-238.933-174.933s-68.267-192-42.667-290.133c17.067-59.733 42.667-110.933 85.333-157.867 17.067-17.067 42.667-21.333 59.733-4.267s21.333 42.667 4.267 59.733c-29.867 34.133-55.467 76.8-64 123.733-21.333 76.8-8.533 153.6 34.133 226.133 38.4 68.267 106.667 119.467 183.467 136.533 157.867 42.667 324.267-55.467 362.667-213.333 4.267-17.067 21.333-29.867 42.667-29.867h51.2c64 0 119.467-34.133 149.333-89.6 21.333-38.4 25.6-85.333 12.8-128s-42.667-81.067-81.067-102.4c-21.333-12.8-29.867-38.4-17.067-59.733 8.533-12.8 21.333-21.333 38.4-21.333 8.533 0 12.8 0 21.333 4.267 59.733 34.133 102.4 85.333 123.733 153.6 17.067 59.733 8.533 132.267-21.333 192zM543.836 477.864c-4.267 4.267-8.533 8.533-12.8 8.533-8.533 4.267-21.333 4.267-34.133 0-4.267-4.267-8.533-4.267-12.8-8.533l-170.667-170.667c-17.067-17.067-17.067-42.667 0-59.733s42.667-17.067 59.733 0l98.133 98.133v-281.6c0-25.6 17.067-42.667 42.667-42.667s42.667 17.067 42.667 42.667v281.6l98.133-98.133c8.533-8.533 21.333-12.8 29.867-12.8s21.333 4.267 29.867 12.8c17.067 17.067 17.067 42.667 0 59.733l-170.667 170.667z" />
<glyph unicode="&#xe94a;" glyph-name="home-solid" d="M921.608 609.598l-384 298.667c-17.067 12.8-38.4 12.8-51.2 0l-384-298.667c-12.8-8.533-17.067-21.333-17.067-34.133v-469.333c0-72.533 55.467-128 128-128h597.333c72.533 0 128 55.467 128 128v469.333c0 12.8-4.267 25.6-17.067 34.133zM597.341 63.465h-170.667v341.333h170.667z" />
<glyph unicode="&#xe94b;" glyph-name="home-2-solid" d="M510.416 917.866c-9.067 0-17.6-3.202-24-9.602l-384-298.667c-12.8-8.533-17.068-21.333-17.068-34.133v-469.333c0-72.533 55.467-128 128-128h92.327c79.604 0 121.006 55.513 121.006 127.52v299.147h170.667v-299.147c0-72.007 42.491-127.52 119.477-127.52h93.856c72.533 0 128 55.467 128 128v469.333c0 12.8-4.268 25.599-17.068 34.133l-384 298.667c-8.533 6.4-18.131 9.602-27.198 9.602z" />
<glyph unicode="&#xe94c;" glyph-name="heart-solid" d="M918.66 797.868v0c-51.2 51.2-119.467 81.067-192 81.067v0c-72.533 0-145.067-29.867-196.267-81.067v0l-17.067-17.067-17.067 17.067c-51.2 51.2-119.467 81.067-196.267 81.067-72.533 0-140.8-29.867-192-81.067s-85.333-123.733-85.333-196.267c0-72.533 29.867-145.067 81.067-196.267l375.467-375.467c8.533-8.533 17.067-12.8 29.867-12.8s21.333 4.267 29.867 12.8l375.467 375.467c115.2 106.667 115.2 285.867 4.267 392.533z" />
<glyph unicode="&#xe94d;" glyph-name="folder-solid" d="M853.333 746.661h-362.667l-72.533 110.933c-8.533 8.533-21.333 17.067-34.133 17.067h-213.333c-72.533 0-128-55.467-128-128v-597.333c0-72.533 55.467-128 128-128h682.667c72.533 0 128 55.467 128 128v469.333c0 72.533-55.467 128-128 128z" />
<glyph unicode="&#xe94e;" glyph-name="eye-off-solid" d="M511.985 831.987c-62.507 0-119.642-13.35-171.182-34.961l178.544-178.544c88.043-3.786 159.347-75.090 163.133-163.133l207.034-207.034c81.498 87.231 126.054 174.301 130.206 182.604 4.267 8.533 4.267 25.602 0 34.135-8.533 17.067-187.734 366.932-507.734 366.932zM262.568 755.792c-162.827-103.955-252.347-278.796-258.318-290.737-4.267-12.8-4.267-25.601 0-38.401 8.533-12.8 187.734-362.667 507.734-362.667 129.043 0 235.172 56.903 316.464 125.924l-170.281 170.281c-29.952-49.558-84.363-82.872-146.182-82.872-93.867 0-170.667 76.8-170.667 170.667 0 61.819 33.314 116.231 82.872 146.182l-161.622 161.622zM1011.185 8.52l-938.667 938.667c-17.067 17.067-42.667 17.067-59.733 0s-17.067-42.667 0-59.733l938.667-938.667c8.533-8.533 21.333-12.8 29.867-12.8s21.333 4.267 29.867 12.8c17.067 17.067 17.067 42.667 0 59.733z" />
<glyph unicode="&#xe94f;" glyph-name="eye-solid" d="M512 831.995c-320 0-499.201-349.866-507.734-366.932-4.267-12.8-4.267-25.601 0-38.401 8.533-12.8 187.734-362.667 507.734-362.667s499.201 349.866 507.734 366.932c4.267 8.533 4.267 25.602 0 34.135-8.533 17.067-187.734 366.932-507.734 366.932zM512 618.662c93.867 0 170.667-76.8 170.667-170.667s-76.8-170.667-170.667-170.667c-93.867 0-170.667 76.8-170.667 170.667s76.8 170.667 170.667 170.667z" />
<glyph unicode="&#xe950;" glyph-name="edit-solid" d="M925.868 648.527l-213.333 213.333c-17.067 17.067-42.667 17.067-59.733 0l-554.667-554.667c-8.533-8.533-12.8-17.067-12.8-29.867v-213.333c0-25.6 17.067-42.667 42.667-42.667h213.333c12.8 0 21.333 4.267 29.867 12.8l554.667 554.667c17.067 17.067 17.067 42.667 0 59.733z" />
<glyph unicode="&#xe951;" glyph-name="message-solid" d="M939.502 494.92c-12.8 204.8-174.933 371.2-384 379.733h-21.333c-64 0-123.733-12.8-179.2-42.667-140.8-68.267-226.133-209.067-226.133-362.667 0-55.467 12.8-115.2 34.133-166.4l-76.8-226.133c-4.267-17.067 0-34.133 8.533-42.667 12.8-8.533 21.333-12.8 34.133-12.8 4.267 0 8.533 0 12.8 4.267l226.133 76.8c51.2-21.333 106.667-34.133 166.4-34.133 153.6 0 294.4 85.333 362.667 221.867 29.867 55.467 42.667 119.467 42.667 183.467z" />
<glyph unicode="&#xe952;" glyph-name="layers-solid" d="M68.267 623.472l426.667-213.333c4.267-4.267 8.533-4.267 17.067-4.267s12.8 0 17.067 4.267l426.667 213.333c17.067 8.533 25.6 21.333 25.6 38.4s-8.533 29.867-25.6 38.4l-426.667 213.333c-12.8 4.267-25.6 4.267-38.4 0l-426.667-213.333c-12.8-8.533-21.333-21.333-21.333-38.4s8.533-29.867 25.6-38.4zM921.6 273.606l-409.6-204.8-409.6 204.8c-21.333 8.533-46.933 0-55.467-17.067s0-46.933 17.067-55.467l426.667-213.333c8.533-8.533 12.8-8.533 21.333-8.533s12.8 0 17.067 4.267l426.667 213.333c21.333 8.533 29.867 34.133 17.067 55.467-8.533 21.333-34.133 29.867-51.2 21.333zM921.6 486.939l-409.6-204.8-409.6 204.8c-21.333 8.533-46.933 0-55.467-17.067-8.533-21.333 0-46.933 17.067-55.467l426.667-213.333c8.533-8.533 12.8-8.533 21.333-8.533s12.8 0 17.067 4.267l426.667 213.333c21.333 8.533 29.867 34.133 17.067 55.467-8.533 21.333-34.133 29.867-51.2 21.333z" />
<glyph unicode="&#xe953;" glyph-name="image-2-solid" d="M213.341 874.661c-72.533 0-128-55.467-128-128v-597.333c0-72.533 55.467-128 128-128h597.333c72.533 0 128 55.467 128 128v597.333c0 72.533-55.467 128-128 128h-597.333zM362.675 703.994c59.733 0 106.667-46.933 106.667-106.667s-46.933-106.667-106.667-106.667c-59.733 0-106.667 46.933-106.667 106.667s46.933 106.667 106.667 106.667zM682.675 473.593l170.667-170.667v-153.599c0-25.6-17.067-42.667-42.667-42.667h-494.932l366.932 366.932z" />
<glyph unicode="&#xe954;" glyph-name="image-solid" d="M810.675 874.661h-597.333c-72.533 0-128-55.467-128-128v-597.333c0-72.533 55.467-128 128-128h597.333c72.533 0 128 55.467 128 128v597.333c0 72.533-55.467 128-128 128zM170.675 746.661c0 25.6 17.067 42.667 42.667 42.667h597.333c25.6 0 42.667-17.067 42.667-42.667v-324.267l-140.8 140.8c-17.067 17.067-42.667 17.067-59.733 0l-452.267-452.267c-17.067 4.267-29.867 21.333-29.867 38.4zM362.675 490.661c59.733 0 106.667 46.933 106.667 106.667s-46.933 106.667-106.667 106.667c-59.733 0-106.667-46.933-106.667-106.667s46.933-106.667 106.667-106.667z" />
<glyph unicode="&#xe955;" glyph-name="grid-solid" d="M426.667 874.669h-298.667c-25.6 0-42.667-17.067-42.667-42.667v-298.667c0-25.6 17.067-42.667 42.667-42.667h298.667c25.6 0 42.667 17.067 42.667 42.667v298.667c0 25.6-17.067 42.667-42.667 42.667zM896 874.669h-298.667c-25.6 0-42.667-17.067-42.667-42.667v-298.667c0-25.6 17.067-42.667 42.667-42.667h298.667c25.6 0 42.667 17.067 42.667 42.667v298.667c0 25.6-17.067 42.667-42.667 42.667zM896 405.335h-298.667c-25.6 0-42.667-17.067-42.667-42.667v-298.667c0-25.6 17.067-42.667 42.667-42.667h298.667c25.6 0 42.667 17.067 42.667 42.667v298.667c0 25.6-17.067 42.667-42.667 42.667zM426.667 405.335h-298.667c-25.6 0-42.667-17.067-42.667-42.667v-298.667c0-25.6 17.067-42.667 42.667-42.667h298.667c25.6 0 42.667 17.067 42.667 42.667v298.667c0 25.6-17.067 42.667-42.667 42.667z" />
<glyph unicode="&#xe956;" glyph-name="phone-solid" d="M868.26 364.81c-38.4 4.267-76.8 12.8-110.933 25.6-46.933 17.067-98.133 4.267-136.533-29.867l-29.867-29.867c-76.8 51.2-145.067 115.2-196.267 196.267l29.867 29.867c34.133 34.133 46.933 89.6 29.867 136.533-12.8 34.133-21.333 72.533-25.6 110.933-8.533 64-64 110.933-128 110.933v0h-140.8c-34.133-4.267-64-21.333-85.333-46.933s-29.867-59.733-29.867-93.867c12.8-136.533 64-273.067 136.533-388.267 68.267-106.667 162.133-200.533 268.8-268.8 115.2-76.8 251.733-123.733 388.267-136.533h12.8c34.133 0 68.267 12.8 89.6 38.4s38.4 55.467 38.4 89.6v128c0 64-46.933 119.467-110.933 128z" />
<glyph unicode="&#xe957;" glyph-name="moon-solid" d="M916.102 450.121c-12.8 8.533-34.133 8.533-46.933-4.267-89.6-68.267-213.333-68.267-302.933 0-115.2 85.333-140.8 243.2-55.467 358.4 8.533 12.8 12.8 29.867 4.267 46.933-8.533 12.8-25.6 21.333-42.667 21.333-204.8-17.067-366.933-179.2-384-384-21.333-234.667 149.333-443.733 384-465.067h38.4c98.133 0 196.267 34.133 273.067 98.133 89.6 72.533 140.8 174.933 153.6 290.133 0 12.8-8.533 29.867-21.333 38.4z" />
<glyph unicode="&#xe958;" glyph-name="settings-solid" d="M512 960.010c-72.533 0-128-55.467-128-128v-8.534c0-8.533-4.266-17.067-12.799-21.333-4.267 0-4.267 0.001-8.534-4.266-8.533-4.267-21.333 0.001-34.133 8.534-51.2 51.2-132.267 51.2-179.201 0-51.2-51.2-51.201-132.269 4.266-183.469 8.533-8.533 8.535-21.333 4.268-34.133-4.267-8.533-17.067-17.065-29.867-17.065-72.533 0-128-55.467-128-128s55.467-128 128-128h8.534c12.8 0 21.332-8.534 25.599-17.068s4.266-21.333-8.534-34.133c-25.6-25.6-38.398-55.468-38.398-89.602s12.798-63.999 38.398-89.599c51.2-51.2 132.269-51.201 183.469 4.266 8.533 8.533 21.333 8.535 34.133 4.268s17.065-12.801 17.065-29.867c0-72.533 55.467-128 128-128s128 55.467 128 128v8.534c0 12.8 8.534 21.332 17.068 25.599s21.333 4.266 34.133-8.534c51.2-51.2 132.267-51.2 179.201 0 51.2 51.2 51.201 132.269-4.266 183.469-4.267 8.533-8.535 21.331-4.268 29.865s12.801 17.068 29.867 17.068c72.533 0 128 55.467 128 128s-55.467 128-128 128h-8.534c-8.533 0-17.067 4.266-21.333 12.799 0 4.267 0.001 4.267-4.266 8.534-4.267 8.533-4.266 21.333 8.534 34.133 51.2 51.2 51.2 132.267 0 179.201-25.6 25.6-55.468 38.401-89.602 38.401s-68.267-12.801-93.867-38.401c-8.533-8.533-21.331-8.532-29.865-4.266-8.533 0-17.068 12.799-17.068 25.599 0 72.533-55.467 128-128 128zM512 618.677c93.867 0 170.667-76.8 170.667-170.667s-76.8-170.667-170.667-170.667c-93.867 0-170.667 76.8-170.667 170.667s76.8 170.667 170.667 170.667z" />
<glyph unicode="&#xe959;" glyph-name="profile-solid" d="M512 917.335c-260.267 0-469.333-209.067-469.333-469.333s209.067-469.333 469.333-469.333c260.267 0 469.333 209.067 469.333 469.333s-209.067 469.333-469.333 469.333zM512 832.002c213.333 0 384-170.667 384-384 0-119.033-53.148-224.766-137.18-294.997-16.631 40.888-53.759 70.69-92.471 88.349-52.223 23.822-112.373 32.945-164.503 32.945-52.74 0-108.944-10.4-156.552-35.544-34.454-18.197-65.77-47.518-80.451-85.466-83.836 70.232-136.844 175.84-136.844 294.714 0 213.333 170.667 384 384 384zM512.192 317.102c119.467 0 213.333 93.867 213.333 213.333s-93.867 213.333-213.333 213.333c-119.467 0-213.333-93.867-213.333-213.333s93.867-213.333 213.333-213.333z" />
<glyph unicode="&#xe95a;" glyph-name="profile-2-solid" d="M512 917.328c-260.267 0-469.333-209.067-469.333-469.333s209.067-469.333 469.333-469.333c260.267 0 469.333 209.067 469.333 469.333s-209.067 469.333-469.333 469.333zM512.193 743.761c119.467 0 213.333-93.867 213.333-213.333s-93.867-213.333-213.333-213.333c-119.467 0-213.333 93.867-213.333 213.333s93.867 213.333 213.333 213.333zM501.846 274.292c52.13 0 112.28-9.123 164.503-32.945 38.713-17.659 75.841-47.461 92.471-88.349-11.077-14.242-37.326-28.539-75.451-49.203-51.487-25.483-109.634-39.799-171.37-39.799-61.722 0-119.857 14.309-171.336 39.781-24.47 13.735-64.161 39.012-75.82 49.505 14.68 37.948 45.996 67.269 80.451 85.466 47.608 25.144 103.813 35.544 156.552 35.544z" />
<glyph unicode="&#xe95b;" glyph-name="copy-2-solid" d="M853.333 618.669h-384c-72.533 0-128-55.467-128-128v-384c0-72.533 55.467-128 128-128h384c72.533 0 128 55.467 128 128v384c0 72.533-55.467 128-128 128zM213.333 362.669h-42.667c-25.6 0-42.667 17.067-42.667 42.667v384c0 25.6 17.067 42.667 42.667 42.667h384c25.6 0 42.667-17.067 42.667-42.667v-42.667c0-25.6 17.067-42.667 42.667-42.667s42.667 17.067 42.667 42.667v42.667c0 72.533-55.467 128-128 128h-384c-72.533 0-128-55.467-128-128v-384c0-72.533 55.467-128 128-128h42.667c25.6 0 42.667 17.067 42.667 42.667s-17.067 42.667-42.667 42.667z" />
<glyph unicode="&#xe95c;" glyph-name="copy-solid" d="M853.333 618.662h-384c-72.533 0-128-55.467-128-128v-384c0-72.533 55.467-128 128-128h384c72.533 0 128 55.467 128 128v384c0 72.533-55.467 128-128 128zM896 106.662c0-25.6-17.067-42.667-42.667-42.667h-384c-25.6 0-42.667 17.067-42.667 42.667v384c0 25.6 17.067 42.667 42.667 42.667h384c25.6 0 42.667-17.067 42.667-42.667v-384zM170.667 917.328c-72.533 0-128-55.467-128-128v-384c0-72.533 55.467-128 128-128h42.667c23.331 0 39.567 14.179 42.263 36.070 0.005 115.984 0.003 148.634 0.003 264.617 0 74.933 53.462 126.103 116.396 126.103 114.96 0.017 156.587-0.025 271.547 0.001 23.617 1.509 39.125 18.144 39.125 42.542v42.667c0 72.533-55.467 128-128 128z" />
<glyph unicode="&#xe95d;" glyph-name="camera-solid" d="M384 874.661c-12.8 0-25.599-8.534-34.133-17.068l-72.534-110.932h-149.333c-72.533 0-128-55.467-128-128v-469.333c0-72.533 55.467-128 128-128h768c72.533 0 128 55.467 128 128v469.333c0 72.533-55.467 128-128 128h-149.333l-72.534 110.932c-8.533 8.533-21.333 17.068-34.133 17.068h-256zM512 618.661c119.467 0 213.333-93.867 213.333-213.333s-93.867-213.333-213.333-213.333c-119.467 0-213.333 93.867-213.333 213.333s93.867 213.333 213.333 213.333z" />
<glyph unicode="&#xe95e;" glyph-name="bookmark-solid" d="M727.355 874.856h-426.667c-72.533 0-128-55.467-128-128v-682.667c0-17.067 8.533-29.867 21.333-38.4s29.867-4.267 42.667 4.267l273.067 196.267 273.067-196.267c8.533-4.267 17.067-8.533 25.6-8.533s12.8 0 21.333 4.267c12.8 8.533 21.333 21.333 21.333 38.4v682.667c4.267 72.533-51.2 128-123.733 128z" />
<glyph unicode="&#xe95f;" glyph-name="bell-solid" d="M605.867 102.395c-21.333 12.8-46.933 4.267-59.733-17.067s-38.4-25.6-59.733-17.067c-8.533 4.267-12.8 8.533-17.067 17.067-12.8 21.333-38.4 25.6-59.733 17.067-21.333-12.8-25.6-38.4-17.067-59.733 12.8-21.333 25.6-34.133 46.933-46.933s42.667-17.067 64-17.067c42.667 0 85.333 21.333 110.933 64 21.333 21.333 12.8 46.933-8.533 59.733zM938.667 277.328c-46.933 0-85.333 38.4-85.333 85.333v213.333c0 187.733-153.6 341.333-341.333 341.333s-341.333-153.6-341.333-341.333v-213.333c0-46.933-38.4-85.333-85.333-85.333-25.6 0-42.667-17.067-42.667-42.667s17.067-42.667 42.667-42.667h853.333c25.6 0 42.667 17.067 42.667 42.667s-17.067 42.667-42.667 42.667z" />
<glyph unicode="&#xe960;" glyph-name="award-solid" d="M853.341 619.728c0 187.733-153.6 341.333-341.333 341.333s-341.333-153.6-341.333-341.333c0-110.933 51.2-209.067 132.267-268.8l-46.933-366.933c-4.267-17.067 4.267-34.133 17.067-42.667s29.867-8.533 46.933 0l192 115.2 192-115.2c4.267-4.267 12.8-4.267 21.333-4.267s17.067 4.267 21.333 8.533c4.267 4.267 21.333 25.6 17.067 42.667l-46.933 362.667c85.333 59.733 136.533 157.867 136.533 268.8zM669.875 60.794l-136.533 81.067c-12.8 8.533-29.867 8.533-42.667 0l-136.533-81.067 29.867 243.2c38.4-17.067 81.067-25.6 128-25.6s89.6 8.533 128 25.6z" />
<glyph unicode="&#xe961;" glyph-name="map-pin-solid" d="M512 960.002c-234.667 0-426.667-192-426.667-426.667 0-315.733 388.268-580.266 401.068-588.799 8.533-4.267 17.066-8.534 25.599-8.534s17.066 4.267 25.599 8.534c12.8 8.533 401.068 273.066 401.068 588.799 0 234.667-192 426.667-426.667 426.667zM512 704.002c93.867 0 170.667-76.8 170.667-170.667s-76.8-170.667-170.667-170.667c-93.867 0-170.667 76.8-170.667 170.667s76.8 170.667 170.667 170.667z" />
<glyph unicode="&#xe962;" glyph-name="alert-circle-solid" d="M512 917.328c-260.267 0-469.333-209.067-469.333-469.333s209.067-469.333 469.333-469.333c260.267 0 469.333 209.067 469.333 469.333s-209.067 469.333-469.333 469.333zM512 661.328c25.6 0 42.667-17.067 42.667-42.667v-170.667c0-25.6-17.067-42.667-42.667-42.667s-42.667 17.067-42.667 42.667v170.667c0 25.6 17.067 42.667 42.667 42.667zM512 319.995c10.667 0 21.334-4.266 29.867-12.799s12.799-21.334 12.799-29.867c0-8.533-4.266-21.334-12.799-29.867s-17.067-12.799-29.867-12.799c-12.8 0-21.334 4.266-29.867 12.799s-12.799 17.067-12.799 29.867c0 12.8 4.266 21.334 12.799 29.867s19.201 12.799 29.867 12.799z" />
<glyph unicode="&#xe963;" glyph-name="close-circle-solid" d="M512 917.328c-260.267 0-469.333-209.067-469.333-469.333s209.067-469.333 469.333-469.333c260.267 0 469.333 209.067 469.333 469.333s-209.067 469.333-469.333 469.333zM384 618.662c10.667 0 21.334-4.266 29.867-12.799l98.133-98.133 98.133 98.133c17.067 17.067 42.668 17.067 59.734 0s17.067-42.668 0-59.734l-98.133-98.133 98.133-98.133c17.067-17.067 17.067-42.668 0-59.734-8.533-8.533-21.334-12.799-29.867-12.799s-21.334 4.266-29.867 12.799l-98.133 98.133-98.133-98.133c-8.533-8.533-17.067-12.799-29.867-12.799s-21.334 4.266-29.867 12.799c-17.067 17.067-17.067 42.668 0 59.734l98.133 98.133-98.133 98.133c-17.067 17.067-17.067 42.668 0 59.734 8.533 8.533 19.201 12.799 29.867 12.799z" />
<glyph unicode="&#xe964;" glyph-name="help-circle-solid" d="M512 917.328c-260.267 0-469.333-209.067-469.333-469.333s209.067-469.333 469.333-469.333c260.267 0 469.333 209.067 469.333 469.333s-209.067 469.333-469.333 469.333zM508.187 704.477c18.261-0.051 36.813-2.949 55.013-9.016 68.267-25.6 115.199-89.598 119.466-166.398 0-110.933-140.801-162.134-157.867-166.401-4.267-4.267-8.533-4.266-12.799-4.266-17.067 0-34.134 12.798-38.401 29.865-8.533 25.6 4.268 46.935 25.602 55.469 25.6 12.8 98.133 46.932 98.133 89.599 0 38.4-21.333 68.268-55.466 81.068-46.933 17.067-93.868-8.534-110.935-51.201-8.533-21.333-34.133-34.135-55.466-25.602-25.6 4.267-34.134 29.869-29.867 55.469 23.8 68 90.951 111.614 162.589 111.414zM512 277.328c10.667 0 21.334-4.266 29.867-12.799s12.799-21.334 12.799-29.867c0-8.533-4.266-21.334-12.799-29.867s-17.067-12.799-29.867-12.799c-12.8 0-21.334 4.266-29.867 12.799s-12.799 17.067-12.799 29.867c0 12.8 4.266 21.334 12.799 29.867s19.201 12.799 29.867 12.799z" />
<glyph unicode="&#xe965;" glyph-name="user" d="M682.667 362.656h-341.333c-119.467 0-213.333-93.867-213.333-213.333v-85.333c0-25.6 17.067-42.667 42.667-42.667s42.667 17.067 42.667 42.667v85.333c0 72.533 55.467 128 128 128h341.333c72.533 0 128-55.467 128-128v-85.333c0-25.6 17.067-42.667 42.667-42.667s42.667 17.067 42.667 42.667v85.333c0 119.467-93.867 213.333-213.333 213.333zM512 447.989c119.467 0 213.333 93.867 213.333 213.333s-93.867 213.333-213.333 213.333-213.333-93.867-213.333-213.333 93.867-213.333 213.333-213.333zM512 789.322c72.533 0 128-55.467 128-128s-55.467-128-128-128-128 55.467-128 128 55.467 128 128 128z" />
<glyph unicode="&#xe966;" glyph-name="airplay" d="M853.333 874.671h-682.667c-72.533 0-128-55.467-128-128v-426.667c0-72.533 55.467-128 128-128h42.667c25.6 0 42.667 17.067 42.667 42.667s-17.067 42.667-42.667 42.667h-42.667c-25.6 0-42.667 17.067-42.667 42.667v426.667c0 25.6 17.067 42.667 42.667 42.667h682.667c25.6 0 42.667-17.067 42.667-42.667v-426.667c0-25.6-17.067-42.667-42.667-42.667h-42.667c-25.6 0-42.667-17.067-42.667-42.667s17.067-42.667 42.667-42.667h42.667c72.533 0 128 55.467 128 128v426.667c0 72.533-55.467 128-128 128zM546.133 345.604c-17.067 21.333-51.2 21.333-64 0l-213.333-256c-8.533-12.8-12.8-29.867-4.267-46.933 4.267-12.8 17.067-21.333 34.133-21.333h426.667c17.067 0 29.867 8.533 38.4 25.6s4.267 34.133-4.267 46.933l-213.333 251.733zM388.267 106.671l123.733 145.067 123.733-145.067h-247.467z" />
<glyph unicode="&#xe967;" glyph-name="alert-circle" d="M512 917.337c-260.267 0-469.333-209.067-469.333-469.333s209.067-469.333 469.333-469.333 469.333 209.067 469.333 469.333-209.067 469.333-469.333 469.333zM512 64.004c-213.333 0-384 170.667-384 384s170.667 384 384 384c213.333 0 384-170.667 384-384s-170.667-384-384-384zM512 661.337c-25.6 0-42.667-17.067-42.667-42.667v-170.667c0-25.6 17.067-42.667 42.667-42.667s42.667 17.067 42.667 42.667v170.667c0 25.6-17.067 42.667-42.667 42.667zM482.133 307.204c-8.533-8.533-12.8-17.067-12.8-29.867s4.267-21.333 12.8-29.867c8.533-8.533 17.067-12.8 29.867-12.8s21.333 4.267 29.867 12.8c8.533 8.533 12.8 21.333 12.8 29.867s-4.267 21.333-12.8 29.867c-17.067 17.067-42.667 17.067-59.733 0z" />
<glyph unicode="&#xe968;" glyph-name="alert-octagon" d="M966.407 652.803l-251.733 251.733c-4.267 8.533-17.067 12.8-29.867 12.8h-349.867c-12.8 0-25.6-4.267-29.867-12.8l-251.733-251.733c-8.533-4.267-12.8-17.067-12.8-29.867v-354.133c0-12.8 4.267-21.333 12.8-29.867l251.733-251.733c4.267-4.267 17.067-8.533 29.867-8.533h354.133c12.8 0 21.333 4.267 29.867 12.8l251.733 251.733c8.533 8.533 12.8 17.067 12.8 29.867v349.867c-4.267 12.8-8.533 25.6-17.067 29.867zM893.874 290.136l-226.133-226.133h-315.733l-226.133 226.133v315.733l226.133 226.133h320l221.867-226.133v-315.733zM509.874 661.336c-25.6 0-42.667-17.067-42.667-42.667v-170.667c0-25.6 17.067-42.667 42.667-42.667s42.667 17.067 42.667 42.667v170.667c0 25.6-17.067 42.667-42.667 42.667zM480.007 307.203c-8.533-8.533-12.8-17.067-12.8-29.867s4.267-21.333 12.8-29.867c8.533-8.533 17.067-12.8 29.867-12.8s21.333 4.267 29.867 12.8c8.533 8.533 12.8 21.333 12.8 29.867s-4.267 21.333-12.8 29.867c-17.067 17.067-42.667 17.067-59.733 0z" />
<glyph unicode="&#xe969;" glyph-name="alert-triangle" d="M978.813 209.071l-358.4 605.867c-17.067 29.867-46.933 51.2-81.067 59.733s-68.267 4.267-98.133-12.8c-17.067-8.533-34.133-25.6-42.667-42.667 0 0 0 0 0 0l-358.4-610.133c-34.133-59.733-12.8-140.8 46.933-174.933 17.067-12.8 38.4-17.067 59.733-17.067h725.333c34.133 0 68.267 12.8 89.6 38.4 25.6 25.6 38.4 55.467 38.4 89.6-4.267 21.333-8.533 46.933-21.333 64zM902.013 115.205c-8.533-8.533-21.333-12.8-29.867-12.8h-725.333c-8.533 0-12.8 0-21.333 4.267-21.333 12.8-25.6 38.4-17.067 59.733l362.667 601.6c4.267 4.267 8.533 12.8 12.8 12.8 21.333 12.8 46.933 4.267 59.733-12.8l362.667-601.6c4.267-4.267 4.267-12.8 4.267-21.333 4.267-12.8-4.267-21.333-8.533-29.867zM509.48 614.405c-25.6 0-42.667-17.067-42.667-42.667v-170.667c0-25.6 17.067-42.667 42.667-42.667s42.667 17.067 42.667 42.667v170.667c0 25.6-17.067 42.667-42.667 42.667zM479.613 260.271c-8.533-8.533-12.8-17.067-12.8-29.867s4.267-21.333 12.8-29.867c8.533-8.533 17.067-12.8 29.867-12.8s21.333 4.267 29.867 12.8c8.533 8.533 12.8 21.333 12.8 29.867s-4.267 21.333-12.8 29.867c-17.067 17.067-42.667 17.067-59.733 0z" />
<glyph unicode="&#xe96a;" glyph-name="align-center" d="M256 575.996c-25.6 0-42.667-17.067-42.667-42.667s17.067-42.667 42.667-42.667h512c25.6 0 42.667 17.067 42.667 42.667s-17.067 42.667-42.667 42.667h-512zM128 661.329h768c25.6 0 42.667 17.067 42.667 42.667s-17.067 42.667-42.667 42.667h-768c-25.6 0-42.667-17.067-42.667-42.667s17.067-42.667 42.667-42.667zM896 405.329h-768c-25.6 0-42.667-17.067-42.667-42.667s17.067-42.667 42.667-42.667h768c25.6 0 42.667 17.067 42.667 42.667s-17.067 42.667-42.667 42.667zM768 234.663h-512c-25.6 0-42.667-17.067-42.667-42.667s17.067-42.667 42.667-42.667h512c25.6 0 42.667 17.067 42.667 42.667s-17.067 42.667-42.667 42.667z" />
<glyph unicode="&#xe96b;" glyph-name="align-justify" d="M896 575.996h-768c-25.6 0-42.667-17.067-42.667-42.667s17.067-42.667 42.667-42.667h768c25.6 0 42.667 17.067 42.667 42.667s-17.067 42.667-42.667 42.667zM128 661.329h768c25.6 0 42.667 17.067 42.667 42.667s-17.067 42.667-42.667 42.667h-768c-25.6 0-42.667-17.067-42.667-42.667s17.067-42.667 42.667-42.667zM896 405.329h-768c-25.6 0-42.667-17.067-42.667-42.667s17.067-42.667 42.667-42.667h768c25.6 0 42.667 17.067 42.667 42.667s-17.067 42.667-42.667 42.667zM896 234.663h-768c-25.6 0-42.667-17.067-42.667-42.667s17.067-42.667 42.667-42.667h768c25.6 0 42.667 17.067 42.667 42.667s-17.067 42.667-42.667 42.667z" />
<glyph unicode="&#xe96c;" glyph-name="align-left" d="M128 490.663h597.333c25.6 0 42.667 17.067 42.667 42.667s-17.067 42.667-42.667 42.667h-597.333c-25.6 0-42.667-17.067-42.667-42.667s17.067-42.667 42.667-42.667zM128 661.329h768c25.6 0 42.667 17.067 42.667 42.667s-17.067 42.667-42.667 42.667h-768c-25.6 0-42.667-17.067-42.667-42.667s17.067-42.667 42.667-42.667zM896 405.329h-768c-25.6 0-42.667-17.067-42.667-42.667s17.067-42.667 42.667-42.667h768c25.6 0 42.667 17.067 42.667 42.667s-17.067 42.667-42.667 42.667zM725.333 234.663h-597.333c-25.6 0-42.667-17.067-42.667-42.667s17.067-42.667 42.667-42.667h597.333c25.6 0 42.667 17.067 42.667 42.667s-17.067 42.667-42.667 42.667z" />
<glyph unicode="&#xe96d;" glyph-name="align-right" d="M896 575.996h-597.333c-25.6 0-42.667-17.067-42.667-42.667s17.067-42.667 42.667-42.667h597.333c25.6 0 42.667 17.067 42.667 42.667s-17.067 42.667-42.667 42.667zM128 661.329h768c25.6 0 42.667 17.067 42.667 42.667s-17.067 42.667-42.667 42.667h-768c-25.6 0-42.667-17.067-42.667-42.667s17.067-42.667 42.667-42.667zM896 405.329h-768c-25.6 0-42.667-17.067-42.667-42.667s17.067-42.667 42.667-42.667h768c25.6 0 42.667 17.067 42.667 42.667s-17.067 42.667-42.667 42.667zM896 234.663h-597.333c-25.6 0-42.667-17.067-42.667-42.667s17.067-42.667 42.667-42.667h597.333c25.6 0 42.667 17.067 42.667 42.667s-17.067 42.667-42.667 42.667z" />
<glyph unicode="&#xe96e;" glyph-name="anchor" d="M938.667 492.804h-128c-25.6 0-42.667-17.067-42.667-42.667s17.067-42.667 42.667-42.667h81.067c-21.333-179.2-162.133-320-337.067-337.067v512c72.533 17.067 128 85.333 128 166.4 0 93.867-76.8 170.667-170.667 170.667s-170.667-76.8-170.667-170.667c0-81.067 55.467-145.067 128-166.4v-516.267c-179.2 21.333-320 162.133-337.067 337.067h81.067c25.6 0 42.667 17.067 42.667 42.667s-17.067 42.667-42.667 42.667h-128c-25.6 0-42.667-17.067-42.667-42.667 0-260.267 209.067-469.333 469.333-469.333s469.333 209.067 469.333 469.333c0 29.867-17.067 46.933-42.667 46.933zM426.667 748.804c0 46.933 38.4 85.333 85.333 85.333s85.333-38.4 85.333-85.333-38.4-85.333-85.333-85.333c-46.933 0-85.333 38.4-85.333 85.333z" />
<glyph unicode="&#xe96f;" glyph-name="aperture" d="M891.74 177.055c55.467 76.8 89.6 170.667 89.6 273.067 0 64-12.8 128-38.4 183.467 0 0 0 4.267 0 4.267-64 149.333-204.8 256-375.467 277.333 0 0-4.267 0-4.267 0-17.067 4.267-34.133 4.267-51.2 4.267-153.6 0-290.133-72.533-375.467-187.733 0-4.267-4.267-4.267-4.267-8.533-55.467-76.8-89.6-170.667-89.6-273.067 0-64 12.8-128 38.4-187.733 0 0 0-4.267 0-4.267 64-145.067 204.8-256 371.2-277.333 0 0 4.267 0 4.267 0 17.067 0 34.133-4.267 51.2-4.267 153.6 0 290.133 72.533 375.467 187.733 4.267 4.267 8.533 8.533 8.533 12.8zM584.54 322.122h-149.333l-72.533 128 72.533 128h149.333l72.533-128-72.533-128zM128.007 450.122c0 59.733 12.8 119.467 38.4 170.667l170.667-298.667h-187.733c-12.8 38.4-21.333 81.067-21.333 128zM682.674 578.122h187.733c12.8-38.4 21.333-81.067 21.333-128 0-59.733-12.8-119.467-38.4-170.667l-170.667 298.667zM832.007 663.455h-345.6l93.867 162.133c106.667-17.067 196.267-76.8 251.733-162.133zM486.407 834.122l-170.667-298.667-93.867 162.133c64 76.8 157.867 128 264.533 136.533zM192.007 236.789h345.6l-93.867-162.133c-106.667 17.067-196.267 76.8-251.733 162.133zM537.607 66.122l170.667 298.667 93.867-162.133c-64-76.8-157.867-128-264.533-136.533z" />
<glyph unicode="&#xe970;" glyph-name="archive" d="M981.333 874.656h-938.667c-25.6 0-42.667-17.067-42.667-42.667v-213.333c0-25.6 17.067-42.667 42.667-42.667h42.667v-512c0-25.6 17.067-42.667 42.667-42.667h768c25.6 0 42.667 17.067 42.667 42.667v512h42.667c25.6 0 42.667 17.067 42.667 42.667v213.333c0 25.6-17.067 42.667-42.667 42.667zM853.333 106.656h-682.667v469.333h682.667v-469.333zM938.667 661.322h-853.333v128h853.333v-128zM426.667 405.322h170.667c25.6 0 42.667 17.067 42.667 42.667s-17.067 42.667-42.667 42.667h-170.667c-25.6 0-42.667-17.067-42.667-42.667s17.067-42.667 42.667-42.667z" />
<glyph unicode="&#xe971;" glyph-name="arrow-down" d="M840.541 477.871c-17.067 17.067-42.667 17.067-59.733 0l-226.133-226.133v494.933c0 25.6-17.067 42.667-42.667 42.667s-42.667-17.067-42.667-42.667v-494.933l-226.133 226.133c-17.067 17.067-42.667 17.067-59.733 0s-17.067-42.667 0-59.733l298.667-298.667c4.267-4.267 8.533-8.533 12.8-8.533 4.267-4.267 12.8-4.267 17.067-4.267s12.8 0 17.067 4.267c4.267 4.267 8.533 4.267 12.8 8.533l298.667 298.667c17.067 17.067 17.067 42.667 0 59.733z" />
<glyph unicode="&#xe972;" glyph-name="arrow-down-circle" d="M512 917.337c-260.267 0-469.333-209.067-469.333-469.333s209.067-469.333 469.333-469.333 469.333 209.067 469.333 469.333-209.067 469.333-469.333 469.333zM512 64.004c-213.333 0-384 170.667-384 384s170.667 384 384 384c213.333 0 384-170.667 384-384s-170.667-384-384-384zM652.8 477.871l-98.133-98.133v238.933c0 25.6-17.067 42.667-42.667 42.667s-42.667-17.067-42.667-42.667v-238.933l-98.133 98.133c-17.067 17.067-42.667 17.067-59.733 0s-17.067-42.667 0-59.733l170.667-170.667c4.267-4.267 8.533-8.533 12.8-8.533 4.267-4.267 12.8-4.267 17.067-4.267s12.8 0 17.067 4.267c4.267 4.267 8.533 4.267 12.8 8.533l170.667 170.667c17.067 17.067 17.067 42.667 0 59.733s-42.667 17.067-59.733 0z" />
<glyph unicode="&#xe973;" glyph-name="arrow-down-left" d="M725.341 277.322h-324.267l354.133 354.133c17.067 17.067 17.067 42.667 0 59.733s-42.667 17.067-59.733 0l-354.133-354.133v324.267c0 25.6-17.067 42.667-42.667 42.667s-42.667-17.067-42.667-42.667v-426.667c0-4.267 0-12.8 4.267-17.067 4.267-8.533 12.8-17.067 21.333-21.333 4.267-4.267 12.8-4.267 17.067-4.267h426.667c25.6 0 42.667 17.067 42.667 42.667s-17.067 42.667-42.667 42.667z" />
<glyph unicode="&#xe974;" glyph-name="arrow-down-right" d="M768 661.322c0 25.6-17.067 42.667-42.667 42.667s-42.667-17.067-42.667-42.667v-324.267l-354.133 354.133c-17.067 17.067-42.667 17.067-59.733 0s-17.067-42.667 0-59.733l354.133-354.133h-324.267c-25.6 0-42.667-17.067-42.667-42.667s17.067-42.667 42.667-42.667h426.667c4.267 0 12.8 0 17.067 4.267 8.533 4.267 17.067 12.8 21.333 21.333 4.267 4.267 4.267 12.8 4.267 17.067v426.667z" />
<glyph unicode="&#xe975;" glyph-name="arrow-left-circle" d="M512 917.33c-260.267 0-469.333-209.067-469.333-469.333s209.067-469.333 469.333-469.333 469.333 209.067 469.333 469.333-209.067 469.333-469.333 469.333zM512 63.997c-213.333 0-384 170.667-384 384s170.667 384 384 384c213.333 0 384-170.667 384-384s-170.667-384-384-384zM682.667 490.664h-238.933l98.133 98.133c17.067 17.067 17.067 42.667 0 59.733s-42.667 17.067-59.733 0l-170.667-170.667c-4.267-4.267-8.533-8.533-8.533-12.8-4.267-8.533-4.267-21.333 0-34.133 4.267-4.267 4.267-8.533 8.533-12.8l170.667-170.667c8.533-8.533 21.333-12.8 29.867-12.8s21.333 4.267 29.867 12.8c17.067 17.067 17.067 42.667 0 59.733l-98.133 98.133h238.933c25.6 0 42.667 17.067 42.667 42.667s-17.067 42.667-42.667 42.667z" />
<glyph unicode="&#xe976;" glyph-name="arrow-right-circle" d="M512 917.33c-260.267 0-469.333-209.067-469.333-469.333s209.067-469.333 469.333-469.333 469.333 209.067 469.333 469.333-209.067 469.333-469.333 469.333zM512 63.997c-213.333 0-384 170.667-384 384s170.667 384 384 384c213.333 0 384-170.667 384-384s-170.667-384-384-384zM721.067 465.064c-4.267 4.267-4.267 8.533-8.533 12.8l-170.667 170.667c-17.067 17.067-42.667 17.067-59.733 0s-17.067-42.667 0-59.733l98.133-98.133h-238.933c-25.6 0-42.667-17.067-42.667-42.667s17.067-42.667 42.667-42.667h238.933l-98.133-98.133c-17.067-17.067-17.067-42.667 0-59.733 8.533-8.533 21.333-12.8 29.867-12.8s21.333 4.267 29.867 12.8l170.667 170.667c4.267 4.267 8.533 8.533 8.533 12.8 4.267 12.8 4.267 21.333 0 34.133z" />
<glyph unicode="&#xe977;" glyph-name="arrow-up" d="M840.533 478.393l-298.667 298.667c-4.267 4.267-8.533 8.533-12.8 8.533-8.533 4.267-21.333 4.267-34.133 0-4.267-4.267-8.533-4.267-12.8-8.533l-298.667-298.667c-17.067-17.067-17.067-42.667 0-59.733s42.667-17.067 59.733 0l226.133 226.133v-494.933c0-25.6 17.067-42.667 42.667-42.667s42.667 17.067 42.667 42.667v494.933l226.133-226.133c8.533-8.533 21.333-12.8 29.867-12.8s21.333 4.267 29.867 12.8c17.067 17.067 17.067 42.667 0 59.733z" />
<glyph unicode="&#xe978;" glyph-name="arrow-up-circle" d="M512 917.33c-260.267 0-469.333-209.067-469.333-469.333s209.067-469.333 469.333-469.333 469.333 209.067 469.333 469.333-209.067 469.333-469.333 469.333zM512 63.997c-213.333 0-384 170.667-384 384s170.667 384 384 384c213.333 0 384-170.667 384-384s-170.667-384-384-384zM541.867 648.53c-4.267 4.267-8.533 8.533-12.8 8.533-8.533 4.267-21.333 4.267-34.133 0-4.267-4.267-8.533-4.267-12.8-8.533l-170.667-170.667c-17.067-17.067-17.067-42.667 0-59.733s42.667-17.067 59.733 0l98.133 98.133v-238.933c0-25.6 17.067-42.667 42.667-42.667s42.667 17.067 42.667 42.667v238.933l98.133-98.133c8.533-8.533 21.333-12.8 29.867-12.8s21.333 4.267 29.867 12.8c17.067 17.067 17.067 42.667 0 59.733l-170.667 170.667z" />
<glyph unicode="&#xe979;" glyph-name="arrow-up-left" d="M401.060 618.664h324.267c25.6 0 42.667 17.067 42.667 42.667s-17.067 42.667-42.667 42.667h-426.667c-4.267 0-12.8 0-17.067-4.267-8.533-4.267-17.067-12.8-21.333-21.333-4.267-4.267-4.267-12.8-4.267-17.067v-426.667c0-25.6 17.067-42.667 42.667-42.667s42.667 17.067 42.667 42.667v324.267l354.133-354.133c8.533-8.533 21.333-12.8 29.867-12.8s21.333 4.267 29.867 12.8c17.067 17.067 17.067 42.667 0 59.733l-354.133 354.133z" />
<glyph unicode="&#xe97a;" glyph-name="arrow-up-right" d="M763.733 678.404c-4.267 8.533-12.8 17.067-21.333 21.333-4.267 4.267-12.8 4.267-17.067 4.267h-426.667c-25.6 0-42.667-17.067-42.667-42.667s17.067-42.667 42.667-42.667h324.267l-354.133-354.133c-17.067-17.067-17.067-42.667 0-59.733 8.533-8.533 17.067-12.8 29.867-12.8s21.333 4.267 29.867 12.8l354.133 354.133v-324.267c0-25.6 17.067-42.667 42.667-42.667s42.667 17.067 42.667 42.667v426.667c0 4.267 0 12.8-4.267 17.067z" />
<glyph unicode="&#xe97b;" glyph-name="award" d="M853.326 619.73c0 187.733-153.6 341.333-341.333 341.333s-341.333-153.6-341.333-341.333c0-110.933 51.2-209.067 132.267-268.8l-46.933-366.933c-4.267-17.067 4.267-34.133 17.067-42.667s29.867-8.533 46.933 0l192 115.2 192-115.2c4.267-4.267 12.8-4.267 21.333-4.267s17.067 4.267 21.333 8.533 21.333 25.6 17.067 42.667l-46.933 362.667c85.333 59.733 136.533 157.867 136.533 268.8zM255.993 619.73c0 140.8 115.2 256 256 256s256-115.2 256-256-115.2-256-256-256-256 115.2-256 256zM669.86 60.796l-136.533 81.067c-12.8 8.533-29.867 8.533-42.667 0l-136.533-81.067 29.867 243.2c38.4-17.067 81.067-25.6 128-25.6s89.6 8.533 128 25.6l29.867-243.2z" />
<glyph unicode="&#xe97c;" glyph-name="profile" d="M512 917.33c-260.267 0-469.333-209.067-469.333-469.333s209.067-469.333 469.333-469.333c260.267 0 469.333 209.067 469.333 469.333s-209.067 469.333-469.333 469.333zM512 831.997c213.333 0 384-170.667 384-384 0-119.033-53.148-224.766-137.18-294.997-16.631 40.888-53.759 70.69-92.471 88.349-52.223 23.822-112.373 32.945-164.503 32.945-52.74 0-108.944-10.4-156.552-35.544-34.454-18.197-65.77-47.518-80.451-85.466-83.836 70.232-136.844 175.84-136.844 294.714 0 213.333 170.667 384 384 384zM501.846 189.627c41.335 0 93.067-8.752 129.365-25.31s52.073-33.543 52.073-58.125c0.007-0.859 0.038-1.694 0.093-2.523l-0.007 0.128c-51.487-25.483-109.634-39.799-171.37-39.799-61.722 0-119.857 14.309-171.336 39.781 0.034 0.633 0.053 1.374 0.053 2.12 0 0.103 0 0.207-0.001 0.31v-0.016c0 24.936 13.362 41.448 44.12 57.693s76.286 25.742 117.010 25.742zM512.192 317.097c119.467 0 213.333 93.867 213.333 213.333s-93.867 213.333-213.333 213.333c-119.467 0-213.333-93.867-213.333-213.333s93.867-213.333 213.333-213.333zM512.192 658.43c72.533 0 128-55.467 128-128s-55.467-128-128-128c-72.533 0-128 55.467-128 128s55.467 128 128 128z" />
<glyph unicode="&#xe97d;" glyph-name="bar-chart" d="M512 576.004c-25.6 0-42.667-17.067-42.667-42.667v-426.667c0-25.6 17.067-42.667 42.667-42.667s42.667 17.067 42.667 42.667v426.667c0 25.6-17.067 42.667-42.667 42.667zM768 832.004c-25.6 0-42.667-17.067-42.667-42.667v-682.667c0-25.6 17.067-42.667 42.667-42.667s42.667 17.067 42.667 42.667v682.667c0 25.6-17.067 42.667-42.667 42.667zM256 320.004c-25.6 0-42.667-17.067-42.667-42.667v-170.667c0-25.6 17.067-42.667 42.667-42.667s42.667 17.067 42.667 42.667v170.667c0 25.6-17.067 42.667-42.667 42.667z" />
<glyph unicode="&#xe97e;" glyph-name="bar-chart-2" d="M768 576.004c-25.6 0-42.667-17.067-42.667-42.667v-426.667c0-25.6 17.067-42.667 42.667-42.667s42.667 17.067 42.667 42.667v426.667c0 25.6-17.067 42.667-42.667 42.667zM512 832.004c-25.6 0-42.667-17.067-42.667-42.667v-682.667c0-25.6 17.067-42.667 42.667-42.667s42.667 17.067 42.667 42.667v682.667c0 25.6-17.067 42.667-42.667 42.667zM256 405.337c-25.6 0-42.667-17.067-42.667-42.667v-256c0-25.6 17.067-42.667 42.667-42.667s42.667 17.067 42.667 42.667v256c0 25.6-17.067 42.667-42.667 42.667z" />
<glyph unicode="&#xe97f;" glyph-name="sun-solid" d="M512 703.987c-140.8 0-256-115.2-256-256s115.2-256 256-256c140.8 0 256 115.2 256 256s-115.2 256-256 256zM512 789.32c25.6 0 42.667 17.067 42.667 42.667v85.333c0 25.6-17.067 42.667-42.667 42.667s-42.667-17.067-42.667-42.667v-85.333c0-25.6 17.067-42.667 42.667-42.667zM512 106.654c-25.6 0-42.667-17.067-42.667-42.667v-85.333c0-25.6 17.067-42.667 42.667-42.667s42.667 17.067 42.667 42.667v85.333c0 25.6-17.067 42.667-42.667 42.667zM209.067 691.187c8.533-8.533 21.333-12.8 29.867-12.8s21.333 4.267 29.867 12.8c17.067 17.067 17.067 42.667 0 59.733l-59.733 59.733c-17.067 17.067-42.667 17.067-59.733 0s-17.067-42.667 0-59.733l59.733-59.733zM814.933 204.787c-17.067 17.067-42.667 17.067-59.733 0s-17.067-42.667 0-59.733l59.733-59.733c8.533-8.533 21.333-12.8 29.867-12.8s21.333 4.267 29.867 12.8c17.067 17.067 17.067 42.667 0 59.733l-59.733 59.733zM170.667 447.987c0 25.6-17.067 42.667-42.667 42.667h-85.333c-25.6 0-42.667-17.067-42.667-42.667s17.067-42.667 42.667-42.667h85.333c25.6 0 42.667 17.067 42.667 42.667zM981.333 490.654h-85.333c-25.6 0-42.667-17.067-42.667-42.667s17.067-42.667 42.667-42.667h85.333c25.6 0 42.667 17.067 42.667 42.667s-17.067 42.667-42.667 42.667zM209.067 204.787l-59.733-59.733c-17.067-17.067-17.067-42.667 0-59.733 8.533-8.533 21.333-12.8 29.867-12.8s21.333 4.267 29.867 12.8l59.733 59.733c17.067 17.067 17.067 42.667 0 59.733s-42.667 17.067-59.733 0zM785.067 678.387c12.8 0 21.333 4.267 29.867 12.8l59.733 59.733c17.067 17.067 17.067 42.667 0 59.733s-42.667 17.067-59.733 0l-59.733-59.733c-17.067-17.067-17.067-42.667 0-59.733 4.267-8.533 17.067-12.8 29.867-12.8z" />
<glyph unicode="&#xe980;" glyph-name="plus-circle-solid" d="M512 917.328c-260.267 0-469.333-209.067-469.333-469.333s209.067-469.333 469.333-469.333c260.267 0 469.333 209.067 469.333 469.333s-209.067 469.333-469.333 469.333zM512 661.328c25.6 0 42.667-17.067 42.667-42.667v-128h128c25.6 0 42.667-17.067 42.667-42.667s-17.067-42.667-42.667-42.667h-128v-128c0-25.6-17.067-42.667-42.667-42.667s-42.667 17.067-42.667 42.667v128h-128c-25.6 0-42.667 17.067-42.667 42.667s17.067 42.667 42.667 42.667h128v128c0 25.6 17.067 42.667 42.667 42.667z" />
<glyph unicode="&#xe981;" glyph-name="battery" d="M725.333 746.663h-597.333c-72.533 0-128-55.467-128-128v-341.333c0-72.533 55.467-128 128-128h597.333c72.533 0 128 55.467 128 128v341.333c0 72.533-55.467 128-128 128zM768 277.329c0-25.6-17.067-42.667-42.667-42.667h-597.333c-25.6 0-42.667 17.067-42.667 42.667v341.333c0 25.6 17.067 42.667 42.667 42.667h597.333c25.6 0 42.667-17.067 42.667-42.667v-341.333zM981.333 533.329c-25.6 0-42.667-17.067-42.667-42.667v-85.333c0-25.6 17.067-42.667 42.667-42.667s42.667 17.067 42.667 42.667v85.333c0 25.6-17.067 42.667-42.667 42.667z" />
<glyph unicode="&#xe982;" glyph-name="battery-charging" d="M213.348 234.664h-85.333c-25.6 0-42.667 17.067-42.667 42.667v341.333c0 25.6 17.067 42.667 42.667 42.667h136.533c25.6 0 42.667 17.067 42.667 42.667s-17.067 42.667-42.667 42.667h-136.533c-72.533 0-128-55.467-128-128v-341.333c0-72.533 55.467-128 128-128h85.333c25.6 0 42.667 17.067 42.667 42.667s-17.067 42.667-42.667 42.667zM725.348 746.664h-85.333c-25.6 0-42.667-17.067-42.667-42.667s17.067-42.667 42.667-42.667h85.333c25.6 0 42.667-17.067 42.667-42.667v-341.333c0-25.6-17.067-42.667-42.667-42.667h-136.533c-25.6 0-42.667-17.067-42.667-42.667s17.067-42.667 42.667-42.667h136.533c72.533 0 128 55.467 128 128v341.333c0 72.533-55.467 128-128 128zM981.348 533.33c-25.6 0-42.667-17.067-42.667-42.667v-85.333c0-25.6 17.067-42.667 42.667-42.667s42.667 17.067 42.667 42.667v85.333c0 25.6-17.067 42.667-42.667 42.667zM593.082 469.33c-8.533 12.8-21.333 21.333-38.4 21.333h-174.933l128 187.733c12.8 21.333 8.533 46.933-12.8 59.733s-46.933 8.533-59.733-12.8l-170.667-256c-8.533-12.8-8.533-29.867 0-42.667 4.267-12.8 17.067-21.333 34.133-21.333h174.933l-128-187.733c-12.8-21.333-8.533-46.933 12.8-59.733 8.533-4.267 17.067-8.533 25.6-8.533 12.8 0 25.6 8.533 34.133 17.067l170.667 256c8.533 17.067 12.8 29.867 4.267 46.933z" />
<glyph unicode="&#xe983;" glyph-name="bell-off" d="M605.852 102.397c-21.333 12.8-46.933 4.267-59.733-17.067s-38.4-25.6-59.733-17.067c-8.533 4.267-12.8 8.533-17.067 17.067-12.8 21.333-38.4 25.6-59.733 17.067-21.333-12.8-25.6-38.4-17.067-59.733 12.8-21.333 25.6-34.133 46.933-46.933s42.667-17.067 64-17.067c42.667 0 85.333 21.333 110.933 64 21.333 21.333 12.8 46.933-8.533 59.733zM388.252 797.864c123.733 68.267 277.333 25.6 349.867-98.133 17.067-34.133 29.867-81.067 29.867-123.733v-170.667c0-25.6 17.067-42.667 42.667-42.667s42.667 17.067 42.667 42.667v170.667c0 59.733-17.067 115.2-42.667 166.4-93.867 162.133-302.933 221.867-465.067 128-21.333-8.533-29.867-34.133-17.067-55.467s38.4-25.6 59.733-17.067zM1011.185 8.53l-256 256c0 0 0 0 0 0l-682.667 682.667c-17.067 17.067-42.667 17.067-59.733 0s-17.067-42.667 0-59.733l183.467-183.467c-17.067-42.667-25.6-85.333-25.6-128v-213.333c0-46.933-38.4-85.333-85.333-85.333-25.6 0-42.667-17.067-42.667-42.667s17.067-42.667 42.667-42.667h622.933l243.2-243.2c8.533-8.533 21.333-12.8 29.867-12.8s21.333 4.267 29.867 12.8c17.067 17.067 17.067 42.667 0 59.733zM234.652 277.33c12.8 25.6 21.333 55.467 21.333 85.333v213.333c0 21.333 4.267 42.667 8.533 59.733l358.4-358.4h-388.267z" />
<glyph unicode="&#xe984;" glyph-name="bluetooth" d="M571.726 447.907l204.8 204.8c17.067 17.067 17.067 42.667 0 59.733l-234.667 234.667c-12.8 12.8-29.867 17.067-46.933 8.533-17.067-4.267-25.6-21.333-25.6-38.4v-366.933l-162.133 162.133c-17.067 17.067-42.667 17.067-59.733 0s-17.067-42.667 0-59.733l204.8-204.8-204.8-204.8c-17.067-17.067-17.067-42.667 0-59.733s42.667-17.067 59.733 0l162.133 162.133v-366.933c0-17.067 8.533-34.133 25.6-38.4 4.267-4.267 12.8-4.267 17.067-4.267 12.8 0 21.333 4.267 29.867 12.8l234.667 234.667c17.067 17.067 17.067 42.667 0 59.733l-204.8 204.8zM554.66 814.84l132.267-132.267-132.267-132.267v264.533zM554.66 80.974v264.533l132.267-132.267-132.267-132.267z" />
<glyph unicode="&#xe985;" glyph-name="bold" d="M721.055 465.064c42.667 38.4 68.267 93.867 68.267 153.6 0 119.467-93.867 213.333-213.333 213.333h-341.333c-25.6 0-42.667-17.067-42.667-42.667v-682.667c0-25.6 17.067-42.667 42.667-42.667h384c119.467 0 213.333 93.867 213.333 213.333 0 81.067-46.933 149.333-110.933 187.733zM277.322 746.664h298.667c72.533 0 128-55.467 128-128s-55.467-128-128-128h-298.667v256zM618.655 149.33h-341.333v256h341.333c72.533 0 128-55.467 128-128s-55.467-128-128-128z" />
<glyph unicode="&#xe986;" glyph-name="book" d="M853.326 917.322h-576c-81.067 0-149.333-68.267-149.333-149.333v-640c0-81.067 68.267-149.333 149.333-149.333h576c25.6 0 42.667 17.067 42.667 42.667v853.333c0 25.6-17.067 42.667-42.667 42.667zM277.326 831.989h533.333v-554.667h-533.333c-21.333 0-42.667-4.267-64-17.067v507.733c0 34.133 29.867 64 64 64zM277.326 63.989c-34.133 0-64 29.867-64 64s29.867 64 64 64h533.333v-128h-533.333z" />
<glyph unicode="&#xe987;" glyph-name="bookmark" d="M727.362 874.865h-426.667c-72.533 0-128-55.467-128-128v-682.667c0-17.067 8.533-29.867 21.333-38.4s29.867-4.267 42.667 4.267l273.067 196.267 273.067-196.267c8.533-4.267 17.067-8.533 25.6-8.533s12.8 0 21.333 4.267c12.8 8.533 21.333 21.333 21.333 38.4v682.667c4.267 72.533-51.2 128-123.733 128zM770.029 145.265l-230.4 166.4c-8.533 4.267-17.067 8.533-25.6 8.533s-17.067-4.267-25.6-8.533l-230.4-166.4v601.6c0 25.6 17.067 42.667 42.667 42.667h426.667c25.6 0 42.667-17.067 42.667-42.667v-601.6z" />
<glyph unicode="&#xe988;" glyph-name="vk" d="M911.477 330.344c0 0 82.79-81.766 103.27-119.603 0.563-0.819 0.819-1.434 0.922-1.792 8.346-13.978 10.394-24.934 6.298-33.024-6.912-13.363-30.31-20.070-38.246-20.634 0 0-142.234 0-146.33 0-10.189 0-31.386 2.662-57.19 20.48-19.712 13.773-39.322 36.454-58.317 58.624-28.365 32.922-52.89 61.491-77.722 61.491-3.174 0-6.246-0.512-9.216-1.536-18.79-5.939-42.65-32.717-42.65-104.038 0-22.323-17.613-35.021-29.952-35.021 0 0-63.898 0-67.021 0-22.835 0-141.722 7.987-247.142 119.142-129.178 136.090-245.197 409.088-246.323 411.494-7.219 17.664 7.936 27.29 24.32 27.29h147.763c19.814 0 26.266-11.981 30.771-22.733 5.222-12.339 24.576-61.696 56.32-117.146 51.405-90.214 82.995-126.925 108.237-126.925 4.762 0 9.267 1.178 13.517 3.584 32.973 18.125 26.829 135.885 25.293 160.154 0 4.71-0.051 52.582-16.947 75.725-12.083 16.589-32.666 23.040-45.107 25.395 3.328 4.813 10.394 12.186 19.456 16.538 22.579 11.264 63.386 12.902 103.885 12.902h22.477c43.93-0.614 55.296-3.43 71.27-7.475 32.154-7.68 32.768-28.518 29.952-99.482-0.819-20.275-1.69-43.11-1.69-69.99 0-5.734-0.256-12.134-0.256-18.637-0.973-36.403-2.253-77.414 23.45-94.259 3.277-2.048 7.117-3.174 11.11-3.174 8.909 0 35.584 0 107.93 124.16 31.744 54.835 56.32 119.501 58.010 124.365 1.434 2.714 5.734 10.342 10.957 13.414 3.994 2.458 9.318 2.867 12.083 2.867h173.824c18.944 0 31.795-2.867 34.304-10.035 4.198-11.622-0.819-47.104-80.179-154.419-13.363-17.869-25.088-33.331-35.379-46.848-71.936-94.413-71.936-99.174 4.25-170.854z" />
<glyph unicode="&#xe989;" glyph-name="briefcase" d="M853.333 704.004h-128v42.667c0 72.533-55.467 128-128 128h-170.667c-72.533 0-128-55.467-128-128v-42.667h-128c-72.533 0-128-55.467-128-128v-426.667c0-72.533 55.467-128 128-128h682.667c72.533 0 128 55.467 128 128v426.667c0 72.533-55.467 128-128 128zM384 746.671c0 25.6 17.067 42.667 42.667 42.667h170.667c25.6 0 42.667-17.067 42.667-42.667v-42.667h-256v42.667zM640 618.671v-512h-256v512h256zM128 149.337v426.667c0 25.6 17.067 42.667 42.667 42.667h128v-512h-128c-25.6 0-42.667 17.067-42.667 42.667zM896 149.337c0-25.6-17.067-42.667-42.667-42.667h-128v512h128c25.6 0 42.667-17.067 42.667-42.667v-426.667z" />
<glyph unicode="&#xe98a;" glyph-name="camera-off" d="M925.852 93.864c0 0 0 0 0 0l-640 640c0 0 0 0 0 0l-213.333 213.333c-17.067 17.067-42.667 17.067-59.733 0s-17.067-42.667 0-59.733l140.8-140.8h-25.6c-72.533 0-128-55.467-128-128v-469.333c0-72.533 55.467-128 128-128h750.933l72.533-72.533c8.533-8.533 21.333-12.8 29.867-12.8s21.333 4.267 29.867 12.8c17.067 17.067 17.067 42.667 0 59.733l-85.333 85.333zM405.318 477.864c4.267 4.267 4.267 4.267 8.533 8.533l179.2-179.2c-17.067-12.8-38.4-25.6-59.733-29.867-34.133-4.267-68.267 0-93.867 21.333-29.867 21.333-46.933 46.933-55.467 81.067-4.267 34.133 4.267 68.267 21.333 98.133zM127.985 106.664c-25.6 0-42.667 17.067-42.667 42.667v469.333c0 25.6 17.067 42.667 42.667 42.667h110.933l115.2-115.2c-8.533-8.533-12.8-12.8-17.067-21.333-34.133-46.933-42.667-102.4-34.133-157.867s42.667-106.667 89.6-136.533c34.133-25.6 76.8-38.4 119.467-38.4 12.8 0 25.6 0 38.4 4.267 38.4 8.533 72.533 25.6 102.4 51.2l140.8-140.8h-665.6zM895.985 746.664h-149.333l-72.533 110.933c-8.533 8.533-21.333 17.067-34.133 17.067h-256c-25.6 0-42.667-17.067-42.667-42.667s17.067-42.667 42.667-42.667h234.667l72.533-110.933c8.533-8.533 21.333-17.067 34.133-17.067h170.667c25.6 0 42.667-17.067 42.667-42.667v-396.8c0-25.6 17.067-42.667 42.667-42.667s42.667 17.067 42.667 42.667v396.8c0 72.533-55.467 128-128 128z" />
</font>
</defs>
</svg>
